<svg width="199" height="40" viewBox="0 0 199 40" fill="none" xmlns="http://www.w3.org/2000/svg">
<path d="M11.8468 25.2021C11.567 25.0215 10.8473 24.6647 9.69302 24.1344L4.05383 21.5619C2.56868 20.896 1.60958 20.3209 1.18374 19.8409L1.05456 19.69L0.934775 19.5368L0.807948 19.3611L0.692861 19.1809L0.584822 18.9939L0.483828 18.8047L0.394579 18.6087L0.312375 18.4105L0.239565 18.2078L0.176151 18.0028L0.122131 17.7933L0.0798544 17.5815L0.0446256 17.3675L0.0187899 17.1513L0.00469658 16.935L0 16.7188L0.00469658 16.5025L0.0211373 16.2863L0.0446256 16.0723L0.0798544 15.8583L0.122131 15.6466L0.176151 15.4371L0.239565 15.2321L0.312375 15.0271L0.394579 14.8289L0.483828 14.6351L0.584822 14.4437L0.692861 14.259L0.807948 14.081L0.932428 13.9053L1.0663 13.7386L1.20487 13.5787L1.35284 13.4232L1.50785 13.2768L1.71689 13.0966L1.93531 12.9322L2.16783 12.7767L2.4074 12.6348C3.27362 12.1579 4.23115 11.9547 5.27279 12.0266C5.91604 12.0723 6.84452 12.3817 8.05129 12.9524C11.209 14.4456 13.5817 15.5326 15.1514 16.2052C15.1697 16.2136 15.19 16.2173 15.2103 16.2159C15.2306 16.2145 15.2503 16.2081 15.2674 16.1973C15.2846 16.1865 15.2987 16.1716 15.3083 16.1541C15.318 16.1366 15.323 16.1169 15.3228 16.0971C15.3173 14.6154 15.3118 11.0001 15.3064 5.27108C15.3047 4.5181 15.3965 3.85267 15.5812 3.27978L15.6681 3.02975L15.7714 2.78422L15.8841 2.54994L16.011 2.32018L16.1495 2.10168L16.3022 1.88768L16.4666 1.68495L16.6404 1.49347L16.7813 1.35156L16.9293 1.2164L17.0843 1.08801L17.2417 0.964112L17.4084 0.849228L17.5799 0.738852L17.7561 0.635235L17.9369 0.540623L18.1224 0.452775L18.3127 0.371678L18.5076 0.297345L18.7049 0.232018L18.9046 0.175703L19.1065 0.126145L19.3109 0.0833451L19.5176 0.0518123L19.7242 0.0247822L19.9333 0.00901232L20.1423 0H20.3537L20.5627 0.00901232L20.7718 0.0270301L20.9761 0.0518123L21.1828 0.0855999L21.3848 0.126145L21.5868 0.175703L21.784 0.234272L21.979 0.2996L22.1716 0.373932L22.3595 0.455023L22.5427 0.542877L22.7212 0.639737L22.9091 0.752367L23.0923 0.871755L23.2684 1.00015L23.4399 1.13757L23.6019 1.27947L23.7616 1.43266L23.9119 1.59033L24.0576 1.75703L24.2008 1.93498L24.33 2.11744L24.4521 2.30441L24.5625 2.49363L24.6471 2.65356L24.7246 2.81575L24.795 2.98244L24.8608 3.15364L24.9195 3.32709L24.9759 3.50955L25.0229 3.69201L25.0652 3.88348L25.1027 4.07946L25.1356 4.28219L25.1614 4.49394L25.1826 4.71469L25.2014 4.94446L25.2131 5.18323L25.2225 5.43778L25.2249 5.70584C25.2463 9.66245 25.2416 13.0967 25.2108 15.9822C25.2105 16.0101 25.2182 16.0375 25.233 16.0616C25.2478 16.0856 25.2692 16.1053 25.2948 16.1185C25.3205 16.1317 25.3494 16.1379 25.3784 16.1366C25.4075 16.1352 25.4356 16.1262 25.4597 16.1106C25.7777 15.9075 26.0265 15.769 26.2043 15.6961L31.7284 13.1327C33.2577 12.4189 34.3942 12.0312 35.1293 11.9726L35.2984 11.9613L35.4651 11.9568H35.6342L35.8033 11.9636L35.9724 11.9748L36.1392 11.9906L36.306 12.0131L36.4704 12.0401L36.6348 12.0717L36.7968 12.11L36.9589 12.1528L37.1186 12.2001L37.2783 12.2541L37.4333 12.3127L37.5883 12.3758L37.7386 12.4434L37.889 12.5177L38.0346 12.5965L38.1778 12.6799L38.3188 12.7655L38.4573 12.8578L38.5912 12.9547L38.7204 13.0561L38.8472 13.1597L38.9694 13.2678L39.0868 13.3804L39.2019 13.4976L39.3123 13.617L39.4179 13.7409L39.5189 13.867L39.6152 13.9954L39.7068 14.1306L39.8313 14.3288L39.9464 14.5338L40.0497 14.7433L40.1437 14.9595L40.2236 15.178L40.294 15.4033L40.3551 15.6308L40.4021 15.8628L40.4326 16.052L40.4561 16.239L40.4702 16.4282L40.4796 16.6152V16.7999L40.4725 16.9846L40.4584 17.1671L40.4373 17.3473L40.4091 17.5252L40.3715 17.7032L40.3292 17.8766L40.2776 18.0501L40.2212 18.219L40.1554 18.388L40.0826 18.5524L40.0051 18.7123L39.9135 18.8813L39.8149 19.0435L39.7068 19.2034L39.5941 19.3588L39.472 19.5098L39.3451 19.6539L39.2089 19.7958L39.068 19.9333L38.92 20.0639L38.765 20.1878L38.603 20.3094L38.4362 20.4243L38.2624 20.5324L38.0816 20.6361L37.8984 20.7329L37.7081 20.8253C34.0739 22.4897 31.0695 23.8898 28.7174 25.0151C28.6967 25.0249 28.6785 25.0389 28.664 25.0561C28.6496 25.0734 28.6392 25.0935 28.6336 25.1152C28.628 25.1368 28.6274 25.1594 28.6317 25.1814C28.636 25.2034 28.6452 25.2243 28.6586 25.2426C30.1276 27.2838 31.5004 29.1228 32.7665 30.7457C33.9306 32.2406 34.6276 33.369 34.8521 34.1224L34.9179 34.3769L34.9695 34.6337L35.0024 34.8928L35.0189 35.1518L35.0212 35.323L35.0165 35.492L35.0024 35.6632L34.9836 35.8344L34.9555 36.0033L34.9226 36.17L34.8803 36.3367L34.8333 36.5034L34.777 36.6701L34.7135 36.8323L34.6454 36.9922L34.5703 37.1499L34.4881 37.3076L34.3988 37.4607L34.3025 37.6117L34.2015 37.7581L34.0958 37.9022L33.9808 38.0419L33.8633 38.1771L33.7388 38.31L33.6097 38.4361L33.4734 38.56L33.3349 38.6771L33.1892 38.7898L33.0413 38.8979L32.8886 39.0015L32.7336 39.0984L32.5739 39.1885L32.4095 39.2741L32.2427 39.3552L32.0736 39.4295L31.8998 39.4971L31.7401 39.5534L31.5827 39.6052L31.423 39.6503L31.261 39.6931L31.1013 39.7291L30.9416 39.7584L30.7818 39.7854L30.6198 39.8057L30.4577 39.8215L30.298 39.8305L30.1383 39.8372L29.9786 39.835L29.8165 39.8305L29.6592 39.8192L29.4995 39.8034L29.3444 39.7832L29.0978 39.7404L28.8536 39.6841L28.614 39.6142L28.3768 39.5331L28.1419 39.4385L27.9118 39.3326L27.6886 39.2155L27.4702 39.0871L27.2565 38.9452L27.0498 38.7943L26.8478 38.6298L26.6529 38.4564L26.465 38.2739L26.2841 38.0779L26.1127 37.8752L25.9483 37.6635C23.9173 34.9177 22.0666 32.4388 20.4101 30.2457C20.3963 30.2273 20.3781 30.2125 20.357 30.2024C20.3359 30.1923 20.3126 30.1872 20.289 30.1876C20.2655 30.1881 20.2424 30.194 20.2217 30.2049C20.2011 30.2158 20.1835 30.2313 20.1705 30.2502C19.251 31.5895 18.2675 32.94 17.2276 34.2913L14.3387 38.1072L14.2636 38.2041L14.1814 38.2987L14.0968 38.3911L14.0052 38.4834L13.8103 38.6591L13.5965 38.8281L13.3664 38.988L13.1244 39.1367L12.8661 39.2718L12.5983 39.3935L12.3212 39.5038L12.037 39.5962L11.7505 39.675L11.4616 39.7381L11.1703 39.7832L10.8838 39.8102L10.5996 39.8215L10.3225 39.8147C8.3656 39.7079 6.93246 38.8046 6.03377 37.1116C5.41472 35.9465 5.41708 34.6571 6.04081 33.2529C6.15684 32.9932 6.48805 32.5001 7.03196 31.7774L11.8773 25.3823C11.888 25.3687 11.8958 25.3531 11.9001 25.3366C11.9044 25.32 11.9051 25.3028 11.9022 25.2859C11.8994 25.2691 11.893 25.253 11.8835 25.2385C11.8739 25.2241 11.8614 25.2117 11.8468 25.2021Z" fill="white"/>
<path d="M151.388 12.1212L151.827 12.1333L152.261 12.1597L152.686 12.2031L153.106 12.2608L153.521 12.333L153.929 12.422L154.327 12.5279L154.718 12.6482L155.1 12.7829L155.474 12.9321L155.839 13.0957L156.197 13.2762L156.543 13.4711L156.882 13.678L157.208 13.9018L157.526 14.14L157.75 14.3229L157.972 14.513L158.184 14.7127L158.394 14.9196L158.594 15.1313L158.792 15.3503L158.981 15.5789L159.164 15.8123L159.341 16.0529L159.51 16.3007L159.672 16.5534L159.83 16.8156L159.98 17.0827L160.123 17.3546L160.259 17.6337L160.388 17.9201L160.524 18.2497L160.648 18.5866L160.762 18.9307L160.863 19.2771L160.953 19.6332L161.032 19.9918L161.099 20.3551L161.151 20.7208L161.194 21.0914L161.223 21.4643L161.24 21.8373L161.244 22.2126L161.235 22.5856L161.216 22.9585L161.182 23.3315L161.137 23.7045L161.08 24.0726L161.011 24.4383L160.929 24.7993L160.836 25.1554L160.731 25.5067L160.615 25.8531L160.488 26.1924L160.347 26.5269L160.2 26.8517L160.037 27.1717L159.868 27.4821L159.687 27.7877L159.496 28.0788L159.293 28.3652L159.083 28.6395L158.864 28.9066L158.582 29.2194L158.294 29.5177L157.993 29.8016L157.685 30.0687L157.366 30.3238L157.039 30.562L156.703 30.7858L156.357 30.9927L156.075 31.1491L155.787 31.2959L155.491 31.4306L155.193 31.5557L154.887 31.6712L154.58 31.7771L154.265 31.8733L153.945 31.9576L153.621 32.0321L153.292 32.0971L152.96 32.1525L152.621 32.1958L152.28 32.2295L151.934 32.2511L151.586 32.2655L151.233 32.2679L150.883 32.2583L150.534 32.2415L150.188 32.2126L149.847 32.1741L149.511 32.1236L149.179 32.0658L148.853 31.9961L148.528 31.9166L148.211 31.8252L147.896 31.7266L147.591 31.6159L147.288 31.4956L146.99 31.3656L146.696 31.2237L146.412 31.0745L146.131 30.9157L145.79 30.7015L145.456 30.4729L145.132 30.2299L144.817 29.9701L144.511 29.6982L144.218 29.4094L143.932 29.1063L143.657 28.7886L143.44 28.5192L143.235 28.2401L143.037 27.9513L142.851 27.6578L142.675 27.3498L142.508 27.037L142.353 26.7145L142.207 26.3873L142.074 26.0505L141.952 25.7088L141.84 25.3599L141.742 25.0086L141.654 24.6501L141.577 24.2867L141.513 23.921L141.463 23.5529L141.422 23.1799L141.396 22.807L141.379 22.4316L141.377 22.0587L141.389 21.6833L141.41 21.3103L141.446 20.9398L141.494 20.5692L141.551 20.2035L141.625 19.8402L141.709 19.4841L141.804 19.1304L141.909 18.7839L142.028 18.4422L142.159 18.1102L142.3 17.7805L142.434 17.4966L142.572 17.2199L142.72 16.948L142.875 16.6833L143.035 16.4259L143.202 16.1756L143.374 15.9302L143.555 15.692L143.741 15.461L143.934 15.2372L144.134 15.0183L144.34 14.8089L144.55 14.6068L144.769 14.4119L144.991 14.2242L145.22 14.0462L145.539 13.8128L145.871 13.5938L146.21 13.3917L146.56 13.2016L146.921 13.0284L147.288 12.8696L147.665 12.7252L148.049 12.5953L148.442 12.4822L148.843 12.3835L149.251 12.3017L149.666 12.2343L150.086 12.1814L150.513 12.1477L150.947 12.1261L151.388 12.1212ZM145.683 22.3811L145.692 22.5832L145.704 22.7829L145.723 22.9802L145.747 23.1751L145.776 23.37L145.809 23.5649L145.847 23.755L145.892 23.9427L145.94 24.1279L145.995 24.3132L146.055 24.4937L146.117 24.6717L146.186 24.8474L146.26 25.0206L146.338 25.1891L146.42 25.3551L146.508 25.5163L146.601 25.6751L146.696 25.8315L146.799 25.9831L146.904 26.1299L147.011 26.2742L147.126 26.4114L147.243 26.5485L147.364 26.6785L147.488 26.8036L147.617 26.9239L147.751 27.0418L147.887 27.1525L148.027 27.2583L148.17 27.3618L148.316 27.4581L148.49 27.5639L148.667 27.6626L148.845 27.754L149.029 27.8382L149.218 27.9152L149.411 27.9874L149.604 28.05L149.804 28.1053L150.005 28.1558L150.21 28.1967L150.415 28.2304L150.625 28.2593L150.837 28.2785L151.052 28.2906L151.267 28.2954L151.486 28.293L151.705 28.2834L151.92 28.2665L152.135 28.2425L152.345 28.2112L152.552 28.1727L152.757 28.127L152.958 28.074L153.158 28.0139L153.351 27.9465L153.542 27.8743L153.731 27.7925L153.914 27.7035L154.093 27.6096L154.267 27.5086L154.439 27.4003L154.606 27.2872L154.747 27.1813L154.885 27.0707L155.019 26.9576L155.15 26.8373L155.276 26.7145L155.398 26.587L155.515 26.4547L155.629 26.3175L155.739 26.178L155.846 26.0312L155.947 25.882L156.044 25.7304L156.137 25.574L156.226 25.4128L156.309 25.2492L156.388 25.0808L156.462 24.9123L156.529 24.7391L156.593 24.5635L156.653 24.383L156.707 24.2025L156.755 24.0197L156.8 23.832L156.839 23.6419L156.872 23.4518L156.901 23.2593L156.925 23.0668L156.944 22.8695L156.956 22.6722L156.963 22.4749L156.965 22.2752L156.963 22.0731L156.956 21.871L156.941 21.6713L156.925 21.474L156.901 21.2767L156.872 21.0818L156.839 20.8893L156.798 20.6992L156.755 20.5115L156.705 20.3238L156.653 20.1409L156.593 19.9581L156.529 19.78L156.459 19.6068L156.388 19.4335L156.309 19.2651L156.226 19.0991L156.14 18.9355L156.047 18.7767L155.949 18.6227L155.849 18.4711L155.744 18.3219L155.634 18.1799L155.522 18.0404L155.403 17.9056L155.283 17.7757L155.157 17.6506L155.028 17.5303L154.895 17.4124L154.759 17.3017L154.62 17.1934L154.477 17.0924L154.329 16.9937L154.158 16.8902L153.981 16.7916L153.8 16.7002L153.616 16.6159L153.428 16.5365L153.237 16.4668L153.041 16.4042L152.843 16.3465L152.643 16.2983L152.438 16.255L152.23 16.2213L152.02 16.1949L151.81 16.1756L151.596 16.1636L151.379 16.1588L151.159 16.1612L150.942 16.1708L150.725 16.1876L150.513 16.2117L150.303 16.243L150.093 16.2815L149.89 16.3248L149.687 16.3777L149.489 16.4379L149.294 16.5053L149.103 16.5798L148.915 16.6617L148.731 16.7483L148.552 16.8421L148.378 16.9432L148.206 17.0515L148.039 17.1669L147.898 17.2728L147.76 17.3811L147.627 17.4966L147.498 17.6145L147.371 17.7396L147.25 17.8671L147.13 17.9995L147.016 18.1342L146.906 18.2762L146.801 18.4206L146.699 18.5697L146.603 18.7237L146.51 18.8801L146.422 19.0413L146.338 19.205L146.26 19.371L146.186 19.5418L146.117 19.7151L146.052 19.8907L145.993 20.0688L145.94 20.2516L145.89 20.4345L145.847 20.6222L145.807 20.8099L145.773 20.9999L145.745 21.1924L145.721 21.3873L145.704 21.5846L145.69 21.7795L145.683 21.9792L145.68 22.179L145.683 22.3811Z" fill="white"/>
<path d="M92.3921 12.504C93.1447 12.5039 93.8366 12.5111 94.4625 12.5256C94.5345 12.5273 94.6043 12.5506 94.6629 12.5926C94.7216 12.6347 94.7665 12.6934 94.7917 12.7614L101.852 31.705C101.858 31.7218 101.86 31.7397 101.858 31.7574C101.856 31.7751 101.85 31.792 101.84 31.8066C101.829 31.8213 101.816 31.8332 101.8 31.8415C101.785 31.8498 101.767 31.8542 101.75 31.8542H97.5229C97.4971 31.8543 97.4718 31.8463 97.4505 31.8312C97.4292 31.8162 97.4128 31.7948 97.4036 31.77L96.168 28.4592C96.1559 28.4272 96.1346 28.3997 96.1069 28.3804C96.0792 28.361 96.0464 28.3507 96.013 28.3509L88.7616 28.3485C88.7282 28.3483 88.6954 28.3586 88.6677 28.378C88.64 28.3973 88.6187 28.4248 88.6066 28.4567L87.3686 31.7676C87.3594 31.7924 87.343 31.8137 87.3217 31.8288C87.3004 31.8439 87.2751 31.8519 87.2493 31.8518L83.0226 31.8494C83.0049 31.8494 82.9875 31.845 82.9718 31.8367C82.9562 31.8284 82.9428 31.8165 82.9327 31.8018C82.9226 31.7872 82.9162 31.7703 82.914 31.7526C82.9118 31.7349 82.9138 31.717 82.92 31.7002L89.9924 12.759C90.0182 12.6911 90.0636 12.6326 90.1227 12.591C90.1818 12.5494 90.2519 12.5266 90.324 12.5256C90.9493 12.5111 91.6403 12.5039 92.3921 12.504ZM92.3682 24.5949C93.1142 24.5923 93.9049 24.5987 94.7345 24.6141C94.7496 24.6147 94.7646 24.6115 94.7782 24.6048C94.7918 24.598 94.8036 24.5879 94.8125 24.5753C94.8215 24.5628 94.8273 24.5481 94.8295 24.5327C94.8316 24.5172 94.8302 24.5014 94.8251 24.4866C94.1189 22.4533 93.3468 20.2236 92.5137 17.8119C92.4602 17.6569 92.4036 17.5797 92.3444 17.5809C92.2913 17.5825 92.2387 17.6597 92.1869 17.8119C91.3709 20.2165 90.6108 22.4508 89.9113 24.501C89.9063 24.5158 89.9048 24.5316 89.907 24.5471C89.9092 24.5626 89.915 24.5772 89.9239 24.5898C89.9329 24.6023 89.9446 24.6124 89.9582 24.6192C89.9718 24.6259 89.9869 24.6292 90.002 24.6286C90.8309 24.6082 91.6216 24.597 92.3682 24.5949Z" fill="white"/>
<path d="M62.5542 22.0757C62.7136 22.1108 62.8108 22.1357 62.8452 22.1503C64.4033 22.8248 65.3024 24.0092 65.5358 25.6945C65.8301 27.8245 65.1509 29.505 63.5035 30.7234L63.4582 30.7571L63.2626 30.8894L63.0623 31.0121L62.8571 31.1276L62.6425 31.2335L62.4206 31.3297L62.1916 31.4164L61.9555 31.4958L61.7098 31.568L61.457 31.6305L61.1969 31.6834L60.925 31.7292L60.6436 31.7677L60.3525 31.7989L60.0496 31.8206L59.7348 31.835L59.4056 31.8422C56.9679 31.8628 54.3423 31.8644 51.5484 31.8471C51.5127 31.8464 51.4787 31.832 51.4538 31.8068C51.4288 31.7816 51.4148 31.7476 51.4148 31.7123V12.6508C51.4148 12.6202 51.4268 12.5908 51.4483 12.5691C51.4698 12.5475 51.4989 12.5353 51.5293 12.5353C52.2604 12.5233 54.5492 12.5169 58.3727 12.5161C59.8439 12.515 60.8897 12.634 61.5023 12.8722L61.7623 12.9804L62.0127 13.0983L62.256 13.2259L62.4898 13.363L62.7164 13.5098L62.9335 13.6638L63.141 13.8298L63.339 14.0031L63.5274 14.1859L63.7039 14.376L63.8709 14.5733L64.0235 14.7778L64.1691 14.9896L64.3002 15.2085L64.4195 15.4347L64.5292 15.6657L64.6127 15.875L64.689 16.0892L64.7558 16.3057L64.8107 16.5271L64.856 16.7533L64.8918 16.9795L64.918 17.2105L64.9324 17.4414L64.9371 17.6748L64.9324 17.913L64.9157 18.1489L64.8894 18.3871L64.8536 18.6253L64.8083 18.8659L64.7511 19.1041L64.6843 19.3447L64.6318 19.5035L64.565 19.6671L64.4887 19.8307L64.398 19.9968L64.2955 20.1628L64.1834 20.3312L64.0593 20.5021L63.9234 20.6729L63.7755 20.8437L63.618 21.0146L63.4511 21.183L63.2746 21.3466L63.0933 21.5054L62.9072 21.6594L62.7188 21.8062L62.528 21.9433C62.5161 21.951 62.5069 21.9621 62.5015 21.9752C62.4961 21.9882 62.4947 22.0027 62.4974 22.0168C62.5002 22.0309 62.5071 22.044 62.5172 22.0545C62.5273 22.0649 62.5402 22.0723 62.5542 22.0757ZM55.477 16.1902L55.5151 20.5694C55.5158 20.5933 55.5256 20.6159 55.5425 20.6325C55.5594 20.6492 55.5821 20.6585 55.6058 20.6585L58.3775 20.6344C58.6928 20.6318 59.0046 20.5742 59.2951 20.4646C59.5855 20.3551 59.849 20.1959 60.0703 19.9961C60.2916 19.7964 60.4664 19.5599 60.5849 19.3003C60.7033 19.0408 60.7629 18.7631 60.7604 18.4833L60.7557 18.1801C60.7506 17.6157 60.4933 17.0767 60.0402 16.6814C59.5871 16.2862 58.9754 16.0671 58.3393 16.0723L55.5676 16.0964C55.5555 16.0964 55.5435 16.0988 55.5324 16.1036C55.5212 16.1083 55.5111 16.1153 55.5027 16.124C55.4942 16.1328 55.4876 16.1431 55.4832 16.1545C55.4788 16.1659 55.4766 16.178 55.477 16.1902ZM55.508 23.8851V28.3124C55.508 28.3469 55.5215 28.3799 55.5457 28.4043C55.5699 28.4287 55.6026 28.4424 55.6368 28.4424H58.7854C59.4383 28.4424 60.0644 28.2226 60.526 27.8313C60.9877 27.4401 61.247 26.9095 61.247 26.3562V25.8413C61.247 25.288 60.9877 24.7574 60.526 24.3662C60.0644 23.975 59.4383 23.7552 58.7854 23.7552H55.6368C55.6026 23.7552 55.5699 23.7689 55.5457 23.7932C55.5215 23.8176 55.508 23.8506 55.508 23.8851Z" fill="white"/>
<path d="M67.8067 31.7175V12.7281C67.8067 12.6788 67.826 12.6314 67.8604 12.5962C67.8948 12.5611 67.9415 12.5411 67.9904 12.5404C70.9967 12.49 73.5474 12.4964 75.6234 12.5597C76.6476 12.5919 77.6934 12.9127 78.7529 13.5197L78.9605 13.6449L79.1608 13.7796L79.3564 13.9216L79.5425 14.0707L79.7142 14.2223L79.8788 14.3811L80.0362 14.5496L80.1889 14.7204L80.3344 14.9033L80.4704 15.0885L80.6016 15.2834L80.7256 15.4832L80.8401 15.6925L80.9498 15.9042L81.05 16.1208L81.1406 16.3446L81.2241 16.5731L81.3005 16.8065L81.3696 17.0447L81.4269 17.2854L81.4794 17.5332L81.5199 17.781L81.5533 18.0337L81.5772 18.2887L81.5939 18.5462L81.601 18.8036L81.5962 19.0611L81.5867 19.3186L81.5652 19.576L81.5366 19.8335L81.4984 20.0885L81.4507 20.3436L81.3959 20.5938L81.3291 20.8441L81.2575 21.0895L81.1764 21.3301C80.6794 22.7284 79.7157 23.7689 78.2926 24.4437C78.2675 24.4556 78.2451 24.4726 78.2269 24.4937C78.2087 24.5147 78.195 24.5394 78.1867 24.5661C78.1784 24.5928 78.1757 24.6209 78.1787 24.6487C78.1817 24.6765 78.1905 24.7034 78.2043 24.7276L82.226 31.7535C82.2319 31.7634 82.2351 31.7746 82.2353 31.7861C82.2355 31.7976 82.2326 31.809 82.2271 31.819C82.2215 31.829 82.2134 31.8374 82.2035 31.8432C82.1937 31.8491 82.1825 31.8522 82.1711 31.8522H77.763C77.7215 31.8523 77.6806 31.8407 77.6449 31.8186C77.6091 31.7965 77.5799 31.7649 77.5603 31.7271L74.2471 25.4615C74.2139 25.399 74.1644 25.3468 74.1039 25.3104C74.0435 25.2739 73.9742 25.2546 73.9036 25.2545H72.0717C72.0312 25.2545 71.9924 25.2708 71.9637 25.2996C71.9351 25.3285 71.919 25.3677 71.919 25.4085V31.7848C71.919 31.802 71.912 31.8186 71.8995 31.8308C71.8869 31.8429 71.8699 31.8498 71.8522 31.8498H67.9403C67.9228 31.8498 67.9054 31.8464 67.8892 31.8397C67.873 31.8331 67.8583 31.8233 67.8459 31.811C67.8335 31.7987 67.8236 31.7841 67.8169 31.7681C67.8102 31.752 67.8067 31.7348 67.8067 31.7175ZM71.9023 16.4288L71.9119 21.6357C71.9119 21.6561 71.9199 21.6757 71.9342 21.6901C71.9485 21.7046 71.968 21.7127 71.9882 21.7127L74.5715 21.7079C75.2705 21.7066 75.9404 21.4325 76.4338 20.9461C76.9272 20.4597 77.2037 19.8007 77.2025 19.114V18.9312C77.2019 18.5912 77.1331 18.2546 77.0001 17.9407C76.867 17.6269 76.6724 17.3418 76.4272 17.1018C76.182 16.8619 75.891 16.6717 75.571 16.5422C75.251 16.4126 74.9081 16.3463 74.562 16.347L71.9787 16.3518C71.9584 16.3518 71.939 16.3599 71.9247 16.3743C71.9104 16.3888 71.9023 16.4084 71.9023 16.4288Z" fill="white"/>
<path d="M115.563 24.1711C115.567 24.1784 115.573 24.1841 115.581 24.1871C115.589 24.1902 115.597 24.1905 115.605 24.1879C115.613 24.1853 115.62 24.1801 115.624 24.1731C115.629 24.1661 115.631 24.1578 115.63 24.1495V12.6673C115.63 12.6284 115.645 12.5911 115.672 12.5636C115.7 12.536 115.737 12.5206 115.775 12.5206H119.565C119.584 12.5206 119.602 12.5242 119.619 12.5314C119.636 12.5385 119.652 12.549 119.665 12.5621C119.678 12.5753 119.688 12.591 119.696 12.6082C119.703 12.6254 119.706 12.6439 119.706 12.6625V31.7577C119.706 31.782 119.697 31.8052 119.68 31.8224C119.664 31.8395 119.641 31.8492 119.618 31.8492H116.202C116.178 31.8491 116.154 31.8431 116.132 31.8318C116.111 31.8205 116.092 31.8042 116.078 31.7842L107.663 19.8208L107.661 19.8189L107.658 19.8193L107.655 19.8218L107.653 19.8256V31.724C107.653 31.7408 107.65 31.7574 107.643 31.7728C107.637 31.7883 107.627 31.8024 107.616 31.8142C107.604 31.8261 107.589 31.8355 107.574 31.8419C107.558 31.8483 107.541 31.8516 107.524 31.8516H103.751C103.73 31.8516 103.71 31.8432 103.695 31.8283C103.68 31.8134 103.672 31.7932 103.672 31.7722V12.5759C103.672 12.5661 103.674 12.5564 103.678 12.5474C103.681 12.5383 103.686 12.5301 103.693 12.5232C103.7 12.5162 103.708 12.5107 103.716 12.507C103.725 12.5032 103.734 12.5013 103.744 12.5013H107.2C107.247 12.5014 107.294 12.513 107.336 12.5352C107.378 12.5574 107.414 12.5895 107.441 12.6288L115.563 24.1711Z" fill="white"/>
<path d="M122.984 12.6073C122.984 12.5896 122.987 12.5721 122.994 12.5558C123.001 12.5394 123.01 12.5246 123.023 12.512C123.035 12.4995 123.05 12.4896 123.066 12.4828C123.082 12.4761 123.1 12.4726 123.117 12.4726L130.474 12.4846C131.663 12.4868 132.841 12.7253 133.939 13.1865C135.037 13.6477 136.035 14.3225 136.875 15.1724C137.714 16.0224 138.38 17.0308 138.833 18.1401C139.286 19.2494 139.518 20.4378 139.516 21.6376V22.7252C139.514 23.925 139.278 25.1126 138.82 26.2202C138.363 27.3278 137.694 28.3337 136.851 29.1805C136.008 30.0273 135.008 30.6984 133.908 31.1555C132.808 31.6126 131.63 31.8467 130.44 31.8445L123.084 31.8325C123.048 31.8325 123.014 31.8183 122.989 31.793C122.964 31.7677 122.95 31.7335 122.95 31.6977L122.984 12.6073ZM126.981 16.5678L126.962 27.9056C126.962 27.9439 126.977 27.9806 127.004 28.0077C127.031 28.0348 127.068 28.05 127.105 28.05L129.942 28.0548C130.637 28.0561 131.326 27.9191 131.97 27.6517C132.613 27.3843 133.198 26.9917 133.691 26.4964C134.183 26.001 134.575 25.4126 134.842 24.7647C135.109 24.1168 135.248 23.4222 135.249 22.7204V21.782C135.25 21.0802 135.114 20.385 134.849 19.7362C134.584 19.0873 134.195 18.4975 133.704 18.0003C133.213 17.5032 132.63 17.1085 131.987 16.8388C131.345 16.569 130.656 16.4296 129.961 16.4283L127.125 16.4235C127.087 16.4235 127.05 16.4387 127.023 16.4658C126.997 16.4928 126.981 16.5296 126.981 16.5678Z" fill="white"/>
<path d="M167.735 25.2616C167.713 25.2616 167.693 25.2702 167.678 25.2856C167.662 25.3009 167.654 25.3217 167.654 25.3434V31.7775C167.654 31.7992 167.645 31.82 167.63 31.8353C167.615 31.8507 167.594 31.8593 167.573 31.8593H163.704C163.656 31.8593 163.611 31.8403 163.577 31.8064C163.544 31.7726 163.525 31.7267 163.525 31.6788V12.6702C163.525 12.6355 163.539 12.6022 163.563 12.5775C163.588 12.5527 163.621 12.5385 163.656 12.5379C166.364 12.4931 168.947 12.4988 171.387 12.5547C171.812 12.5649 172.453 12.6807 173.307 12.9012L173.529 12.9638L173.741 13.0336L173.953 13.113L174.159 13.1996L174.359 13.2958L174.555 13.3993L174.745 13.5124L174.929 13.6303L175.096 13.7506L175.256 13.8733L175.413 14.0056L175.563 14.1428L175.709 14.2872L175.85 14.4388L175.988 14.5976L176.117 14.7588L176.243 14.9296L176.36 15.1053L176.475 15.2857L176.582 15.471L176.685 15.6635L176.78 15.8608L176.871 16.0629L176.954 16.2698L177.033 16.484L177.104 16.6981L177.169 16.9195L177.226 17.1457L177.279 17.3718L177.321 17.6028L177.36 17.8362L177.391 18.072L177.414 18.3102L177.431 18.5509L177.441 18.7915L177.443 19.0345L177.438 19.2775L177.426 19.5181L177.41 19.7612L177.383 20.0042L177.338 20.3218L177.276 20.6322L177.195 20.9402L177.102 21.2409L176.99 21.5345L176.863 21.8232L176.723 22.0999L176.568 22.3694L176.398 22.6293L176.215 22.8795L176.017 23.1177L175.807 23.3439L175.585 23.5581L175.354 23.7578L175.11 23.9455L174.855 24.1163L174.688 24.2198L174.516 24.316L174.342 24.405L174.163 24.4892C174.148 24.4963 174.134 24.5066 174.123 24.5194C174.111 24.5322 174.103 24.5473 174.098 24.5636C174.093 24.5799 174.091 24.5971 174.093 24.6142C174.095 24.6312 174.1 24.6477 174.108 24.6625L178.19 31.7967C178.194 31.8026 178.196 31.8094 178.196 31.8164C178.196 31.8234 178.194 31.8304 178.19 31.8366C178.187 31.8427 178.181 31.8479 178.175 31.8515C178.169 31.8551 178.161 31.8569 178.154 31.8569H173.76C173.692 31.8568 173.626 31.8383 173.568 31.8031C173.509 31.768 173.461 31.7176 173.429 31.6572L170.158 25.4661C170.125 25.4043 170.076 25.3526 170.017 25.3166C169.957 25.2806 169.889 25.2616 169.82 25.2616H167.735ZM167.651 16.4623L167.632 21.5537C167.632 21.585 167.645 21.615 167.667 21.6371C167.688 21.6592 167.718 21.6716 167.749 21.6716L170.64 21.6813C170.96 21.6825 171.277 21.6201 171.573 21.4974C171.869 21.3747 172.138 21.1943 172.365 20.9664C172.592 20.7385 172.773 20.4676 172.896 20.1692C173.02 19.8707 173.084 19.5506 173.085 19.227V18.8276C173.086 18.504 173.025 18.1834 172.903 17.8839C172.782 17.5845 172.604 17.3122 172.379 17.0825C172.153 16.8528 171.886 16.6703 171.591 16.5453C171.296 16.4203 170.979 16.3553 170.659 16.3541L167.768 16.3444C167.737 16.3444 167.708 16.3568 167.686 16.379C167.664 16.4011 167.651 16.4311 167.651 16.4623Z" fill="white"/>
<path d="M198.276 31.7435C198.28 31.7551 198.282 31.7675 198.28 31.7797C198.278 31.7919 198.274 31.8036 198.266 31.8137C198.259 31.8238 198.25 31.8322 198.238 31.8379C198.227 31.8437 198.215 31.8468 198.202 31.847H193.968C193.937 31.847 193.907 31.8375 193.882 31.8199C193.857 31.8022 193.838 31.7773 193.828 31.7484L192.59 28.4279C192.581 28.4053 192.566 28.3858 192.547 28.372C192.527 28.3582 192.504 28.3509 192.48 28.3509H185.281C185.245 28.3508 185.21 28.3616 185.181 28.3818C185.152 28.402 185.129 28.4307 185.116 28.464L183.89 31.746C183.879 31.7785 183.857 31.8066 183.829 31.8264C183.801 31.8462 183.767 31.8567 183.733 31.8566H179.53C179.512 31.8566 179.495 31.8522 179.479 31.8439C179.464 31.8357 179.45 31.8237 179.44 31.809C179.43 31.7944 179.424 31.7775 179.422 31.7598C179.419 31.7421 179.421 31.7242 179.428 31.7074L186.56 12.6171C186.571 12.584 186.593 12.5554 186.622 12.5352C186.651 12.515 186.686 12.5041 186.722 12.504H191.03C191.072 12.504 191.114 12.5149 191.15 12.5356C191.187 12.5562 191.218 12.5859 191.24 12.6219C191.394 12.8718 191.495 13.1363 191.543 13.4135C191.544 13.4199 191.546 13.4256 191.547 13.4303L198.276 31.7435ZM188.869 24.6093C189.622 24.6091 190.419 24.6179 191.254 24.6358C191.269 24.6364 191.285 24.6331 191.299 24.6262C191.312 24.6193 191.324 24.609 191.334 24.5963C191.343 24.5835 191.349 24.5686 191.351 24.5528C191.353 24.5371 191.352 24.521 191.347 24.5058C190.658 22.5087 189.885 20.2578 189.033 17.771C188.98 17.615 188.923 17.537 188.864 17.5376C188.81 17.5387 188.757 17.6167 188.704 17.771C187.855 20.2525 187.081 22.5041 186.39 24.5083C186.386 24.5232 186.385 24.5391 186.387 24.5545C186.39 24.5699 186.396 24.5845 186.405 24.5969C186.414 24.6094 186.426 24.6194 186.439 24.6262C186.453 24.6329 186.468 24.6362 186.483 24.6358C187.32 24.6177 188.117 24.6089 188.869 24.6093Z" fill="white"/>
</svg>
