<svg width="172" height="41" viewBox="0 0 172 41" fill="none" xmlns="http://www.w3.org/2000/svg">
<path d="M70.8127 7.76128C71.121 7.76128 71.3803 7.65467 71.5964 7.43856C71.8125 7.22246 71.9191 6.96313 71.9191 6.65482C71.9191 6.34652 71.8125 6.08143 71.5964 5.85956C71.3803 5.63769 71.121 5.52532 70.8127 5.52532C70.5044 5.52532 70.2394 5.63769 70.0175 5.85956C69.7957 6.08143 69.6833 6.34652 69.6833 6.65482C69.6833 6.96313 69.7957 7.22246 70.0175 7.43856C70.2394 7.65467 70.5044 7.76128 70.8127 7.76128Z" fill="white"/>
<path d="M71.6425 11.1959C71.6425 10.9049 71.7434 10.6542 71.9422 10.4467C72.141 10.2393 72.3801 10.1269 72.6567 10.1125V8.45282C72.2879 8.45282 71.9422 8.52485 71.6195 8.6718C71.2968 8.81876 71.0116 9.01757 70.7666 9.27113C70.5217 9.5247 70.3287 9.81572 70.1904 10.1471C70.0521 10.4784 69.983 10.8271 69.983 11.1959V19.9784H71.6425V11.1959Z" fill="white"/>
<path d="M76.8517 11.1959C76.8517 10.8876 76.9554 10.6312 77.1629 10.4237C77.3703 10.2162 77.6267 10.1125 77.935 10.1125H83.951C84.2593 10.1125 84.5157 10.2162 84.7231 10.4237C84.9306 10.6312 85.0343 10.8876 85.0343 11.1959V19.9784H86.6939V11.1959C86.6939 10.8127 86.6219 10.4554 86.4749 10.124C86.328 9.79267 86.1321 9.50453 85.8872 9.25961C85.6423 9.01469 85.3541 8.81876 85.0228 8.6718C84.6914 8.52485 84.3342 8.45282 83.951 8.45282H77.935C77.5518 8.45282 77.1945 8.52485 76.8632 8.6718C76.5319 8.81876 76.2438 9.01469 75.9988 9.25961C75.7539 9.50453 75.558 9.79267 75.4111 10.124C75.2641 10.4554 75.1921 10.8127 75.1921 11.1959V19.9784H76.8517V11.1959Z" fill="white"/>
<path d="M91.9032 8.42973C91.7188 8.42973 91.5459 8.4499 91.3846 8.48736C91.2232 8.52482 91.059 8.58244 90.889 8.66024V3.93476H89.2294V17.2353C89.2294 17.6041 89.2986 17.9527 89.4369 18.2841C89.5751 18.6154 89.7682 18.9036 90.0131 19.1485C90.258 19.3934 90.5432 19.5894 90.8659 19.7363C91.1886 19.8833 91.5344 19.9639 91.9032 19.9783H98.2879V19.9553C98.625 19.9236 98.9477 19.8314 99.256 19.6787C99.5643 19.526 99.8236 19.3243 100.04 19.0794C100.256 18.8344 100.429 18.5578 100.558 18.2495C100.688 17.9412 100.754 17.6127 100.754 17.2583H99.0947C99.0947 17.5493 98.9909 17.8 98.7835 18.0075C98.576 18.2149 98.3196 18.3187 98.0113 18.3187H91.9262C91.6352 18.3043 91.3874 18.1919 91.1886 17.9844C90.9898 17.777 90.889 17.5263 90.889 17.2353V11.1728C90.889 10.8645 90.9927 10.6081 91.2002 10.4006C91.4076 10.1931 91.664 10.0894 91.9723 10.0894H100.754V8.42973H91.9032Z" fill="white"/>
<path d="M114.008 9.25961C113.763 9.01469 113.469 8.81876 113.132 8.6718C112.795 8.52485 112.44 8.45282 112.072 8.45282H106.033C105.649 8.45282 105.292 8.52485 104.961 8.6718C104.629 8.81876 104.341 9.01469 104.096 9.25961C103.852 9.50453 103.656 9.79843 103.509 10.1356C103.362 10.4727 103.29 10.8271 103.29 11.1959V17.2353C103.29 17.6185 103.362 17.9758 103.509 18.3072C103.656 18.6385 103.852 18.9267 104.096 19.1716C104.341 19.4165 104.629 19.6124 104.961 19.7594C105.292 19.9064 105.649 19.9784 106.033 19.9784H112.072C112.44 19.9784 112.795 19.9064 113.132 19.7594C113.469 19.6124 113.763 19.4165 114.008 19.1716C114.253 18.9267 114.449 18.6385 114.596 18.3072C114.743 17.9758 114.815 17.6185 114.815 17.2353H113.155C113.155 17.5436 113.051 17.8001 112.844 18.0075C112.636 18.215 112.38 18.3187 112.072 18.3187H106.033C105.724 18.3187 105.468 18.215 105.26 18.0075C105.053 17.8001 104.949 17.5436 104.949 17.2353V15.0454H112.072C112.44 15.0454 112.786 14.9763 113.109 14.838C113.432 14.6997 113.717 14.5153 113.962 14.2848C114.207 14.0542 114.408 13.7805 114.561 13.4664C114.714 13.1524 114.8 12.8095 114.815 12.4407V11.1729C114.815 10.804 114.743 10.4554 114.596 10.124C114.449 9.79267 114.253 9.50453 114.008 9.25961ZM113.155 12.3485C113.141 12.6395 113.028 12.8873 112.821 13.0861C112.613 13.2849 112.363 13.3858 112.072 13.3858H104.949V11.1959C104.949 10.8876 105.053 10.6312 105.26 10.4237C105.468 10.2162 105.724 10.1125 106.033 10.1125H112.072C112.38 10.1125 112.636 10.2162 112.844 10.4237C113.051 10.6312 113.155 10.8876 113.155 11.1959V12.3485Z" fill="white"/>
<path d="M128.068 9.25961C127.823 9.01469 127.529 8.81876 127.192 8.6718C126.855 8.52485 126.501 8.45282 126.132 8.45282H120.093C119.71 8.45282 119.352 8.52485 119.021 8.6718C118.69 8.81876 118.402 9.01469 118.157 9.25961C117.912 9.50453 117.716 9.79267 117.569 10.124C117.422 10.4554 117.35 10.8127 117.35 11.1959V19.9784H119.01V11.1959C119.01 10.8876 119.113 10.6312 119.321 10.4237C119.528 10.2162 119.785 10.1125 120.093 10.1125H126.132C126.44 10.1125 126.697 10.2162 126.904 10.4237C127.111 10.6312 127.215 10.8876 127.215 11.1959H128.875C128.875 10.8127 128.803 10.4554 128.656 10.124C128.509 9.79267 128.313 9.50453 128.068 9.25961Z" fill="white"/>
<path d="M133.583 10.6282C133.735 10.4755 133.92 10.4006 134.15 10.4006H140.189C140.42 10.4006 140.604 10.4755 140.757 10.6282C140.91 10.7809 140.985 10.9682 140.985 11.1958C140.985 11.3543 141.114 11.484 141.273 11.484H142.932C143.091 11.484 143.22 11.3543 143.22 11.1958C143.22 10.7896 143.14 10.3948 142.978 10.0202C142.817 9.65142 142.601 9.32582 142.33 9.05497C142.059 8.78412 141.737 8.56802 141.365 8.40666C140.993 8.2453 140.596 8.16462 140.189 8.16462H134.15C133.727 8.16462 133.329 8.2453 132.963 8.40954C132.6 8.5709 132.28 8.787 132.012 9.05785C131.742 9.32871 131.523 9.6543 131.364 10.0231C131.203 10.3948 131.122 10.7925 131.122 11.1987V17.2381C131.122 17.6617 131.203 18.0622 131.364 18.4253C131.526 18.7883 131.742 19.1082 132.012 19.3761C132.283 19.647 132.603 19.8631 132.963 20.0244C133.329 20.1858 133.73 20.2694 134.15 20.2694H140.189C140.596 20.2694 140.99 20.1887 141.365 20.0273C141.737 19.866 142.059 19.6499 142.33 19.379C142.601 19.1082 142.817 18.7883 142.978 18.4281C143.14 18.0622 143.22 17.6617 143.22 17.241C143.22 17.0825 143.091 16.9529 142.932 16.9529H141.273C141.114 16.9529 140.985 17.0825 140.985 17.241C140.985 17.4715 140.91 17.6559 140.757 17.8086C140.604 17.9614 140.42 18.0363 140.189 18.0363H134.15C133.92 18.0363 133.735 17.9614 133.583 17.8086C133.43 17.6559 133.355 17.4686 133.355 17.241V11.2016C133.355 10.9711 133.43 10.7867 133.583 10.634V10.6282Z" fill="white"/>
<path d="M157.088 8.1416H155.428C155.27 8.1416 155.14 8.27127 155.14 8.42974V17.2353C155.14 17.4658 155.065 17.6502 154.912 17.8029C154.76 17.9556 154.575 18.0305 154.345 18.0305H148.306C148.075 18.0305 147.891 17.9556 147.738 17.8029C147.585 17.6502 147.51 17.4629 147.51 17.2353V8.42974C147.51 8.27127 147.381 8.1416 147.222 8.1416H145.563C145.404 8.1416 145.275 8.27127 145.275 8.42974V17.2353C145.275 17.6588 145.355 18.0594 145.517 18.4224C145.678 18.7855 145.894 19.1053 146.165 19.3733C146.436 19.6441 146.756 19.8602 147.116 20.0216C147.482 20.1829 147.882 20.2665 148.303 20.2665H154.342C154.748 20.2665 155.143 20.1858 155.517 20.0245C155.889 19.8631 156.212 19.647 156.483 19.3761C156.753 19.1053 156.969 18.7855 157.131 18.4253C157.292 18.0594 157.373 17.6588 157.373 17.2382V8.43262C157.373 8.27415 157.243 8.14448 157.085 8.14448L157.088 8.1416Z" fill="white"/>
<path d="M161.796 10.6052C161.948 10.4525 162.133 10.3776 162.363 10.3776H171.145C171.303 10.3776 171.433 10.2479 171.433 10.0895V8.42977C171.433 8.2713 171.303 8.14163 171.145 8.14163H162.294C162.089 8.14163 161.891 8.16469 161.709 8.20791C161.663 8.21943 161.617 8.23096 161.568 8.24536V3.9348C161.568 3.77633 161.438 3.64666 161.28 3.64666H159.62C159.462 3.64666 159.332 3.77633 159.332 3.9348V17.2353C159.332 17.6416 159.41 18.0306 159.563 18.3965C159.715 18.7596 159.931 19.0823 160.202 19.3531C160.47 19.624 160.787 19.8401 161.139 19.9986C161.493 20.1599 161.879 20.2492 162.282 20.2665C162.285 20.2665 162.314 20.2665 162.317 20.2665H168.679C168.725 20.2665 168.768 20.2521 168.808 20.232C169.143 20.1887 169.468 20.0908 169.776 19.9381C170.116 19.768 170.41 19.5433 170.649 19.2696C170.883 19.0016 171.073 18.6962 171.217 18.3619C171.361 18.019 171.436 17.6473 171.436 17.2584C171.436 17.0999 171.306 16.9702 171.148 16.9702H169.488C169.33 16.9702 169.2 17.0999 169.2 17.2584C169.2 17.4716 169.125 17.6502 168.973 17.8029C168.82 17.9557 168.635 18.0306 168.405 18.0306H162.334C162.115 18.019 161.937 17.9384 161.79 17.7857C161.643 17.6329 161.571 17.4514 161.571 17.2353V11.1729C161.571 10.9423 161.646 10.7579 161.798 10.6052H161.796Z" fill="white"/>
<path d="M86.7977 26.8476C86.5989 26.6488 86.3597 26.4874 86.086 26.3693C85.8123 26.2511 85.5242 26.1906 85.2245 26.1906H80.338C80.0268 26.1906 79.7387 26.2483 79.4765 26.3577C79.2143 26.4672 78.9838 26.6257 78.785 26.8245C78.5862 26.6257 78.35 26.4672 78.082 26.3577C77.8141 26.2454 77.5288 26.1906 77.2292 26.1906H72.3398C72.0286 26.1906 71.7376 26.2511 71.4696 26.3693C71.2017 26.4874 70.9654 26.6459 70.7666 26.8476C70.5678 27.0464 70.4065 27.2827 70.2883 27.5506C70.1702 27.8186 70.1097 28.1096 70.1097 28.4208V35.5551H71.4581V28.4208C71.4581 28.1701 71.5417 27.9627 71.7117 27.7927C71.8817 27.6227 72.0891 27.5391 72.3398 27.5391H77.2292C77.4654 27.5391 77.6671 27.6169 77.8285 27.7725C77.9898 27.9281 78.0849 28.1125 78.1108 28.3257V35.5551H79.4592V28.3257C79.4852 28.1125 79.5774 27.9281 79.7387 27.7725C79.9001 27.6169 80.1017 27.5391 80.338 27.5391H85.2245C85.4752 27.5391 85.6826 27.6227 85.8526 27.7927C86.0226 27.9598 86.1062 28.1701 86.1062 28.4208V35.5551H87.4546V28.4208C87.4546 28.1096 87.3941 27.8186 87.276 27.5506C87.1578 27.2827 86.9994 27.0493 86.7977 26.8476Z" fill="white"/>
<path d="M98.2216 26.8476C98.0228 26.6488 97.7837 26.4874 97.51 26.3693C97.2362 26.2511 96.9481 26.1906 96.6485 26.1906H91.7418C91.4306 26.1906 91.1396 26.2511 90.8717 26.3693C90.6037 26.4874 90.3674 26.6459 90.1686 26.8476C89.967 27.0464 89.8085 27.2855 89.6904 27.5593C89.5722 27.833 89.5117 28.1212 89.5117 28.4208V33.3278C89.5117 33.639 89.5722 33.93 89.6904 34.198C89.8085 34.466 89.967 34.7023 90.1686 34.9011C90.3674 35.0999 90.6008 35.2612 90.8717 35.3794C91.1396 35.4975 91.4306 35.558 91.7418 35.558H96.6485C96.9481 35.558 97.2362 35.4975 97.51 35.3794C97.7837 35.2612 98.0228 35.1028 98.2216 34.9011C98.4204 34.7023 98.5789 34.4689 98.6999 34.198C98.818 33.93 98.8785 33.639 98.8785 33.3278H97.5301C97.5301 33.5785 97.4466 33.786 97.2766 33.956C97.1095 34.1231 96.8991 34.2095 96.6485 34.2095H91.7418C91.4911 34.2095 91.2837 34.126 91.1137 33.956C90.9466 33.7889 90.8601 33.5785 90.8601 33.3278V31.55H96.6456C96.9452 31.55 97.2276 31.4924 97.4898 31.3829C97.752 31.2734 97.9825 31.1207 98.1813 30.9334C98.3801 30.7461 98.5443 30.5242 98.6682 30.2678C98.7921 30.0113 98.8612 29.7347 98.8728 29.4351V28.4035C98.8728 28.1039 98.8123 27.8186 98.6941 27.5506C98.576 27.2827 98.4175 27.0493 98.2159 26.8476H98.2216ZM97.5301 29.3573C97.5186 29.5935 97.4264 29.7952 97.2593 29.9566C97.0922 30.118 96.8876 30.1986 96.6514 30.1986H90.8659V28.4208C90.8659 28.1701 90.9494 27.9627 91.1194 27.7927C91.2894 27.6256 91.4969 27.5391 91.7475 27.5391H96.6542C96.9049 27.5391 97.1124 27.6227 97.2823 27.7927C97.4523 27.9598 97.5359 28.1701 97.5359 28.4208V29.3573H97.5301Z" fill="white"/>
<path d="M108.954 26.3779C108.666 26.254 108.372 26.1906 108.072 26.1906H103.166C102.855 26.1906 102.564 26.2511 102.296 26.3693C102.028 26.4874 101.791 26.6459 101.593 26.8476C101.391 27.0464 101.232 27.2855 101.114 27.5593C100.996 27.833 100.936 28.1211 100.936 28.4208V33.3278C100.936 33.639 100.996 33.93 101.114 34.198C101.232 34.466 101.391 34.7022 101.593 34.9011C101.791 35.0999 102.025 35.2612 102.296 35.3794C102.564 35.4975 102.855 35.558 103.166 35.558H108.072C108.372 35.558 108.66 35.4975 108.934 35.3794C109.208 35.2612 109.447 35.1028 109.646 34.9011C109.844 34.7022 110.003 34.4689 110.124 34.198C110.242 33.93 110.303 33.639 110.303 33.3278V22.5226H108.954V26.3808V26.3779ZM108.954 28.4208V33.3278C108.954 33.5785 108.871 33.786 108.701 33.956C108.533 34.1231 108.323 34.2095 108.072 34.2095H103.166C102.915 34.2095 102.708 34.126 102.538 33.956C102.371 33.7888 102.284 33.5785 102.284 33.3278V28.4208C102.284 28.1701 102.368 27.9627 102.538 27.7927C102.708 27.6255 102.915 27.5391 103.166 27.5391H108.072C108.309 27.5391 108.513 27.6198 108.68 27.784C108.85 27.9454 108.94 28.1384 108.951 28.3632V28.4208H108.954Z" fill="white"/>
<path d="M113.279 25.6288C113.53 25.6288 113.74 25.5423 113.916 25.3666C114.091 25.1908 114.178 24.9805 114.178 24.7298C114.178 24.4791 114.091 24.2659 113.916 24.0844C113.74 23.9028 113.53 23.8135 113.279 23.8135C113.028 23.8135 112.812 23.9057 112.633 24.0844C112.455 24.263 112.363 24.482 112.363 24.7298C112.363 24.9776 112.452 25.1908 112.633 25.3666C112.815 25.5423 113.031 25.6288 113.279 25.6288Z" fill="white"/>
<path d="M113.241 26.8562C113.043 27.0608 112.887 27.3 112.775 27.5679C112.662 27.8359 112.607 28.1212 112.607 28.4208V35.5552H113.956V28.4208C113.956 28.1846 114.037 27.98 114.201 27.8129C114.362 27.6457 114.555 27.5535 114.78 27.542V26.1935C114.48 26.1935 114.201 26.254 113.939 26.3722C113.676 26.4903 113.446 26.6545 113.244 26.8591L113.241 26.8562Z" fill="white"/>
<path d="M126.164 33.4402V28.4583C126.164 28.1586 126.103 27.8705 125.985 27.5968C125.867 27.323 125.708 27.0839 125.507 26.885C125.305 26.6862 125.072 26.5249 124.804 26.4067C124.536 26.2886 124.25 26.2281 123.951 26.2281H119.044C118.744 26.2281 118.459 26.2886 118.191 26.4067C117.923 26.5249 117.69 26.6834 117.488 26.885C117.287 27.0867 117.128 27.323 117.01 27.5968C116.892 27.8705 116.831 28.1586 116.831 28.4583V33.3451C116.831 33.6448 116.892 33.9301 117.01 34.198C117.128 34.466 117.287 34.7023 117.488 34.9011C117.687 35.0999 117.923 35.2613 118.191 35.3794C118.459 35.4975 118.744 35.558 119.044 35.558H123.951C124.239 35.558 124.513 35.5062 124.775 35.3996C125.037 35.293 125.268 35.146 125.466 34.9587C125.68 35.1575 125.916 35.316 126.178 35.4255C126.44 35.535 126.72 35.5926 127.022 35.5926V34.2614C126.797 34.2499 126.604 34.1663 126.44 34.0079C126.279 33.8523 126.184 33.6621 126.161 33.4373L126.164 33.4402ZM124.815 33.42C124.789 33.6448 124.697 33.835 124.533 33.9906C124.371 34.1462 124.178 34.224 123.954 34.224H119.047C118.811 34.224 118.606 34.1404 118.439 33.9704C118.269 33.8033 118.186 33.5929 118.186 33.3423V28.4554C118.186 28.2047 118.269 27.9973 118.439 27.8273C118.606 27.6601 118.811 27.5737 119.047 27.5737H123.954C124.19 27.5737 124.395 27.6573 124.562 27.8273C124.732 27.9944 124.815 28.2047 124.815 28.4554V33.42Z" fill="white"/>
<path d="M130.739 32.9417C131.848 32.302 134.078 31.0112 135.188 30.3686C134.078 29.7261 131.848 28.4352 130.739 27.7926V32.9417Z" fill="white"/>
<path d="M21.593 3.94924L3.20223 25.5193C-6.21932 34.4862 7.34541 46.4065 15.6318 37.892L36.1229 13.8843C44.2393 5.31214 30.2193 -6.15292 21.593 3.95212V3.94924Z" fill="white"/>
<path d="M46.3397 4.06445L26.1914 27.9598C18.1327 36.6443 31.6974 45.3865 38.2234 37.4944L62.1172 9.90791C63.506 1.66425 53.174 -3.81328 46.3397 4.06157V4.06445Z" fill="white"/>
<path d="M62.1172 12.1813L44.2393 33.0685C45.6367 44.7007 62.414 41.5369 62.1172 31.5356V12.1813Z" fill="white"/>
</svg>
