<svg width="207" height="35" viewBox="0 0 207 35" fill="none" xmlns="http://www.w3.org/2000/svg">
<path d="M112.412 24.1837H114.098L110.835 27.7834V29.9554H109.512V27.7834L106.224 24.1837H107.935L110.18 26.7218L112.412 24.1837Z" fill="white"/>
<path d="M101.542 25.2575H98.8484V24.1837H105.558V25.2575H102.864V29.9432H101.542V25.2575Z" fill="white"/>
<path d="M96.457 24.1837H97.7795V29.9432H96.457V24.1837Z" fill="white"/>
<path d="M87.3317 24.1837H89.3821L93.6892 28.9792L93.665 24.1837H94.9268V29.9432H92.8642L88.5814 25.1721L88.6057 29.9432H87.3317V24.1837Z" fill="white"/>
<path d="M84.4717 24.1837H85.7942V29.9432H84.4717V24.1837Z" fill="white"/>
<path d="M77.4835 24.1837H83.3193V25.1965H78.7939V26.6852H83.0888V27.6858H78.7939V29.9554H77.4835V24.1837Z" fill="white"/>
<path d="M68.3543 24.1837H70.4047L74.7118 28.9792L74.6875 24.1837H75.9493V29.9432H73.8868L69.6039 25.1721L69.6282 29.9432H68.3543V24.1837Z" fill="white"/>
<path d="M65.4947 24.1838H66.8171V29.9432H65.4947V24.1838Z" fill="white"/>
<path d="M147.885 5.66003V20.0937H134.087L132.272 12.8769V20.0937H128.667V5.66003H134.074L136.778 16.4913H144.268V5.76956H144.293L144.268 5.66003H147.885Z" fill="white"/>
<path d="M182.34 5.66003H185.945V18.2803C185.945 18.5481 185.859 18.8036 185.689 19.0592C185.445 19.4121 185.068 19.6799 184.568 19.8624C184.508 19.8868 184.447 19.8989 184.374 19.9233C184.313 19.9476 184.24 19.9598 184.167 19.9841H184.118C183.85 20.0572 183.545 20.0937 183.241 20.0937H169.442C169.126 20.0937 168.833 20.0693 168.565 20.0085H168.553L168.529 19.9963C168.456 19.972 168.395 19.9598 168.322 19.9355C168.261 19.9111 168.188 19.8989 168.127 19.8746C167.628 19.6921 167.25 19.4243 167.006 19.0714C166.836 18.8158 166.751 18.5602 166.751 18.2925V5.66003H170.356V16.4913H182.364V5.66003H182.34Z" fill="white"/>
<path d="M165.691 5.66003V9.27453H159.115V20.0937H155.498V9.27453H148.921V5.66003H165.691Z" fill="white"/>
<path d="M206.187 5.66003V20.0937H202.582V12.8769L200.78 20.0937H192.388L190.574 12.8769V20.0937H186.969V5.66003H192.376L195.08 16.4913H198.051L200.755 5.66003H206.187ZM190.586 12.8769V12.7673H190.61L190.586 12.8769ZM202.594 12.8769L202.57 12.7673H202.594V12.8769Z" fill="white"/>
<path d="M124.94 5.66003C125.05 5.66003 125.257 5.68437 125.561 5.72088C125.866 5.75739 126.158 5.84258 126.475 5.97645C126.779 6.09815 127.059 6.2807 127.291 6.5241C127.534 6.7675 127.644 7.08392 127.644 7.47336V20.0937H124.039V16.4913H112.03V20.0937H108.425V7.47336C108.425 7.08392 108.547 6.7675 108.803 6.5241C109.047 6.2807 109.327 6.09815 109.643 5.97645C109.96 5.85475 110.264 5.76956 110.557 5.72088C110.849 5.68437 111.044 5.66003 111.129 5.66003H124.94ZM124.039 12.8769V9.27453H112.03V12.8769H124.039Z" fill="white"/>
<path d="M103.797 5.66003H107.402V18.2803C107.402 18.5481 107.317 18.8036 107.147 19.0592C106.903 19.4121 106.525 19.6799 106.026 19.8624C105.965 19.8868 105.904 19.8989 105.831 19.9233C105.77 19.9476 105.697 19.9598 105.624 19.9841H105.575C105.308 20.0572 105.003 20.0937 104.699 20.0937H90.8998C90.5831 20.0937 90.2908 20.0693 90.0229 20.0085H90.0107L89.9863 19.9963C89.9133 19.972 89.8524 19.9598 89.7793 19.9355C89.7184 19.9111 89.6453 19.8989 89.5844 19.8746C89.0851 19.6921 88.7076 19.4243 88.464 19.0714C88.2935 18.8158 88.2082 18.5602 88.2082 18.2925V5.66003H91.8132V16.4913H103.822V5.66003H103.797Z" fill="white"/>
<path d="M84.4695 5.68449C84.6277 5.68449 84.786 5.68465 84.9199 5.70898C85.066 5.73331 85.1999 5.75737 85.3459 5.78169H85.3704C85.3704 5.78169 85.383 5.78217 85.383 5.79434C85.456 5.8186 85.5171 5.83039 85.5901 5.84254C85.663 5.85473 85.7242 5.87939 85.7971 5.89154C86.0406 5.98888 86.2599 6.11099 86.4547 6.2448C86.6493 6.37857 86.7956 6.52425 86.9051 6.69448C87.0756 6.95005 87.1612 7.20596 87.1612 7.4737V18.2928C87.1612 18.5605 87.0756 18.8164 86.9051 19.072C86.6615 19.4248 86.2837 19.6924 85.7845 19.8749C85.7237 19.8992 85.663 19.9115 85.5901 19.9358C85.5293 19.9601 85.456 19.9723 85.383 19.9966H85.334C85.0661 20.0696 84.7613 20.1057 84.4568 20.1057H83.5843L84.0435 21.8823H80.4263L79.0473 16.479H79.0497L78.5992 14.6906H82.2164L82.6668 16.479H83.5559V9.27477H69.1236V16.479H78.5873V20.1057H68.2227C67.906 20.1057 67.6134 20.082 67.3455 20.0211H67.3336L67.3091 20.0085C67.2361 19.9841 67.1751 19.972 67.1021 19.9476C67.0412 19.9233 66.9677 19.9111 66.9069 19.8868C66.4078 19.7043 66.0305 19.4366 65.787 19.0838C65.6165 18.8283 65.531 18.5724 65.531 18.3046V7.4737C65.531 7.20596 65.6165 6.95005 65.787 6.69448C66.0306 6.36609 66.4078 6.09835 66.9069 5.89154C66.9678 5.8672 67.029 5.85471 67.1021 5.84254C67.1629 5.83037 67.2361 5.8065 67.3091 5.79434L67.3336 5.78169H67.3455C67.4916 5.75735 67.6258 5.72115 67.7841 5.70898C67.9302 5.68465 68.0763 5.68449 68.2346 5.68449H84.4695Z" fill="white"/>
<path d="M6.00848 0C2.68836 0 0 2.60365 0 5.8215V28.9606C0 32.1785 2.68836 34.7688 6.00848 34.7688H43.0003V27.2516H52.5574V5.8215C52.5574 2.60365 49.8691 0 46.549 0H6.00848ZM43.0003 12.9381L32.1931 23.4195H17.3937V27.2115H9.57056V7.51721H43.0138V12.9381H43.0003Z" fill="white"/>
</svg>
