<svg width="374" height="110" viewBox="0 0 374 110" fill="none" xmlns="http://www.w3.org/2000/svg">
<path d="M1.46718 63.1672H11.0357C11.9288 63.1672 12.5029 63.6854 12.5029 64.5923V64.9809C12.5029 66.3412 13.077 66.989 14.5442 66.989H31.8952C34.0003 66.989 34.6382 66.3412 34.6382 64.7218V61.8069C34.6382 60.1875 34.0003 59.5397 31.8952 59.5397H11.2271C3.69984 59.5397 0.574114 56.4305 0.574114 49.1755V42.4388C0.574114 35.1839 3.69984 32.0746 11.2271 32.0746H36.2329C44.0154 32.0746 46.6308 34.6009 46.6308 42.2445V44.9003C46.6308 45.8072 46.1205 46.3254 45.1636 46.3254H35.595C34.6382 46.3254 34.1279 45.8072 34.1279 44.9003V44.5116C34.1279 43.1513 33.5537 42.5036 32.0228 42.5036H16.2028C14.0977 42.5036 13.4598 43.1513 13.4598 44.7707V47.297C13.4598 48.9164 14.0977 49.5642 16.2028 49.5642H36.8708C44.3981 49.5642 47.5238 52.6734 47.5238 59.9284V67.0537C47.5238 74.3087 44.3981 77.4179 36.8708 77.4179H10.3978C2.55161 77.4179 0 74.8917 0 67.2481V64.5923C0 63.6854 0.510323 63.1672 1.46718 63.1672Z" fill="white"/>
<path d="M68.9848 75.9929V42.5036H53.739C52.7821 42.5036 52.2718 41.9854 52.2718 41.0785V33.4997C52.2718 32.5928 52.7821 32.0746 53.739 32.0746H97.1164C98.0733 32.0746 98.5836 32.5928 98.5836 33.4997V41.0785C98.5836 41.9854 98.0733 42.5036 97.1164 42.5036H81.8705V75.9929C81.8705 76.8997 81.2964 77.4179 80.4033 77.4179H70.452C69.4952 77.4179 68.9848 76.8997 68.9848 75.9929Z" fill="white"/>
<path d="M136.851 76.0576L134.427 69.7096H112.929L110.505 76.0576C110.186 76.9645 109.549 77.4179 108.464 77.4179H97.9387C97.1094 77.4179 96.7266 76.7702 97.0456 75.9281L114.588 33.4349C114.907 32.528 115.545 32.0746 116.693 32.0746H131.237C132.322 32.0746 132.896 32.528 133.279 33.4349L150.821 75.9281C151.14 76.7702 150.757 77.4179 149.992 77.4179H138.892C137.744 77.4179 137.17 76.9645 136.851 76.0576ZM123.646 41.6615L116.821 59.5397H130.472L123.646 41.6615Z" fill="white"/>
<path d="M200.343 44.857H190.774C189.817 44.857 189.247 44.0924 188.996 43.0128C188.867 42.4586 188.669 42.5036 187.202 42.5036H172.554C168.407 42.5036 167.108 44.0206 167.108 47.5186V62.8433C167.108 66.3412 167.873 66.989 172.02 66.989H187.202C188.669 66.989 189.307 66.3412 189.307 64.9809V61.1591H180.121C179.164 61.1591 178.654 60.6409 178.654 59.734V52.6087C178.654 51.7018 179.164 51.1836 180.121 51.1836H200.343C201.3 51.1836 201.81 51.7018 201.81 52.6087V67.2481C201.81 74.8917 199.195 77.4179 191.348 77.4179H167.108C159.708 77.4179 154.222 71.3249 154.222 64.07V45.1159C154.222 37.861 159.708 32.0746 167.108 32.0746H191.348C199.195 32.0746 201.81 34.6009 201.81 42.2445V43.432C201.81 44.3388 201.3 44.857 200.343 44.857Z" fill="white"/>
<path d="M211.893 32.0746H250.277C251.233 32.0746 251.744 32.5928 251.744 33.4997V41.0785C251.744 41.9854 251.233 42.5036 250.277 42.5036H223.312V49.5642H247.667C248.56 49.5642 249.134 50.0824 249.134 50.9893V58.1146C249.134 59.0215 248.56 59.5397 247.667 59.5397H223.312V66.989H250.277C251.233 66.989 251.744 67.5072 251.744 68.4141V75.9929C251.744 76.8997 251.233 77.4179 250.277 77.4179H211.893C210.936 77.4179 210.426 76.8997 210.426 75.9929V33.4997C210.426 32.5928 210.936 32.0746 211.893 32.0746Z" fill="white"/>
<path d="M306.405 41.2431C312.098 41.2431 313.724 43.1012 313.724 49.5009V60.0292C313.724 66.429 312.098 68.3558 306.405 68.3558C300.645 68.3558 299.086 66.429 299.086 60.0292V49.5009C299.086 43.1012 300.645 41.2431 306.405 41.2431Z" fill="white"/>
<path fill-rule="evenodd" clip-rule="evenodd" d="M319.848 0C349.613 0 373.742 24.5018 373.742 54.7263C373.742 84.9508 349.613 109.453 319.848 109.453C290.084 109.453 265.955 84.9508 265.955 54.7263C265.955 24.5018 290.084 8.40821e-05 319.848 0ZM306.405 30.7143C291.226 30.7143 286.55 35.4625 286.55 50.6016V58.9286C286.55 74.1365 291.226 78.8846 306.405 78.8846C321.517 78.8846 326.261 74.1365 326.261 58.9286V50.6016C326.261 35.4625 321.517 30.7143 306.405 30.7143ZM341.091 31.6088L329.841 35.1182V45.2344L338.787 42.8947V77.9901H351.052V31.6088H341.091Z" fill="white"/>
</svg>
