<svg width="136" height="30" viewBox="0 0 136 30" fill="none" xmlns="http://www.w3.org/2000/svg">
<path d="M13.9976 29.3227H7.31513L0 1.18876H6.04981L10.8343 22.0713L16.1724 1.18876H22.3012L27.5207 22.1902L32.3843 1.18876H38.1177L30.7235 29.3227H24.2783L19.138 9.07419L13.9976 29.3227Z" fill="white"/>
<path d="M46.3639 29.8378C40.0373 29.8378 35.8855 25.5583 35.8855 19.3371V18.822C35.8855 12.6405 40.0373 8.36093 46.3639 8.36093C52.6905 8.36093 56.8424 12.6405 56.8424 18.8616V19.3371C56.8424 25.5583 52.6905 29.8378 46.3639 29.8378ZM46.3639 25.5187C49.6063 25.5187 51.2275 23.3393 51.2275 19.3371V18.8616C51.2275 14.8595 49.6063 12.6801 46.3639 12.6801C43.1216 12.6801 41.5004 14.8595 41.5004 18.822V19.3371C41.5004 23.3393 43.1216 25.5187 46.3639 25.5187Z" fill="white"/>
<path d="M63.6336 29.3227H58.0978V8.87606H63.4359L63.594 12.0461C64.6221 10.1441 66.6387 8.36093 70.0392 8.36093C75.1005 8.36093 77.1171 11.5706 77.1171 16.1671V29.3227H71.6209V17.554C71.6209 14.5821 70.5928 12.8386 67.9436 12.8386C65.3734 12.8386 63.6336 14.7406 63.6336 17.9899V29.3227Z" fill="white"/>
<path d="M87.1269 29.8378C81.6307 29.8378 78.2301 25.4394 78.2301 19.3371V18.822C78.2301 12.799 81.5121 8.36093 86.9688 8.36093C89.9739 8.36093 92.1091 9.78744 93.2953 11.6102V0H98.8707V29.3227H93.7303L93.5721 26.1131C92.6231 27.9358 90.4484 29.8378 87.1269 29.8378ZM88.669 25.5583C91.8323 25.5583 93.4931 23.3393 93.4931 19.3371V18.822C93.4931 14.8199 91.8323 12.6008 88.669 12.6008C85.5453 12.6008 83.845 14.8199 83.845 18.822V19.3371C83.845 23.3393 85.5453 25.5583 88.669 25.5583Z" fill="white"/>
<path d="M110.712 29.8378C104.148 29.8378 100.194 25.6376 100.194 19.3371V18.822C100.194 12.6008 104.267 8.36093 110.712 8.36093C117.671 8.36093 121.111 13.2745 120.755 20.407H105.848C106.125 23.894 107.746 25.5979 110.712 25.5979C113.203 25.5979 114.627 24.4092 115.141 22.8242H120.637C119.648 27.1433 116.05 29.8378 110.712 29.8378ZM105.928 16.7615H115.101C114.864 14.1858 113.44 12.6008 110.672 12.6008C107.944 12.6008 106.402 13.9481 105.928 16.7615Z" fill="white"/>
<path d="M127.595 29.3227H122.059V8.87606H127.397L127.515 12.8386C128.504 10.3818 130.521 8.51943 133.526 8.51943C133.921 8.51943 134.435 8.55906 134.752 8.63831V13.9481C134.356 13.9085 133.723 13.8688 133.209 13.8688C129.532 13.8688 127.595 15.8501 127.595 19.456V29.3227Z" fill="white"/>
<path d="M133.067 29.8436C131.419 29.8436 130.334 28.7075 130.334 27.1047C130.334 25.512 131.419 24.386 133.067 24.386C134.725 24.386 135.791 25.512 135.791 27.1047C135.791 28.7075 134.725 29.8436 133.067 29.8436ZM133.067 29.1944C134.376 29.1944 135.084 28.3727 135.084 27.1047C135.084 25.8569 134.376 25.0251 133.067 25.0251C131.768 25.0251 131.041 25.8569 131.041 27.1047C131.041 28.3727 131.768 29.1944 133.067 29.1944ZM132.68 28.535H131.962V25.6439H133.31C133.891 25.6439 134.318 25.9584 134.318 26.5873V26.6482C134.318 27.0945 134.075 27.3989 133.726 27.5206L134.395 28.535H133.591L132.97 27.5916H132.68V28.535ZM132.68 26.2931V26.9424H133.232C133.445 26.9424 133.571 26.8308 133.571 26.6381V26.5975C133.571 26.3946 133.445 26.2931 133.232 26.2931H132.68Z" fill="white"/>
</svg>
