<svg width="70" height="18" viewBox="0 0 70 18" fill="none" xmlns="http://www.w3.org/2000/svg">
<path d="M69.3846 0.767099C69.1382 0.426166 68.8918 0.170466 67.6599 0.0852332C67.3313 0.0852332 66.3458 0 64.6211 0C60.1039 0 56.983 1.44895 55.4225 4.26166C55.8332 1.44907 53.2051 0 47.4559 0C40.7213 0 36.4505 2.81259 34.7258 8.52332C34.0688 10.6541 34.0688 12.3588 34.5616 13.7225H32.919C31.687 13.8077 30.0444 13.893 28.9768 13.893C26.5129 13.893 24.9524 13.4668 24.3775 12.6145C23.8847 11.8474 23.8847 10.3985 24.5418 8.26763C25.6095 4.77311 28.1555 3.23884 32.2619 3.23884C34.3973 3.23884 36.4505 3.49454 36.4505 3.49454C36.6969 3.49454 36.8612 3.15361 36.8612 2.89791L36.7791 2.64221L36.6148 1.44896C36.5327 0.681864 35.9578 0.255715 34.9722 0.0852488C34.0688 1.56501e-05 33.3296 1.56487e-05 32.3441 1.56487e-05H32.262C26.9235 1.56487e-05 23.1455 1.87508 21.0922 5.45497C21.8314 1.79005 19.3675 1.56487e-05 13.7005 1.56487e-05C10.4973 1.56487e-05 8.19777 0.0852488 6.88372 0.255715C5.81603 0.42618 5.159 0.852347 4.91255 1.61943L4.41976 3.15361C4.33763 3.40931 4.50189 3.57977 4.83041 3.57977C5.07681 3.57977 6.06236 3.40931 7.70499 3.32407C9.92245 3.15361 11.483 3.06838 12.5507 3.06838C15.6716 3.06838 17.0679 3.92071 16.5752 5.54017C16.493 5.8811 16.2466 6.1368 15.836 6.22204C12.8793 6.73344 10.4975 7.07437 8.77279 7.33005C3.84495 8.01192 0.970373 9.54608 0.23133 12.1031C-0.836352 15.5976 1.7918 17.3023 8.11584 17.3023C11.2367 17.3023 13.9471 17.1318 16.0825 16.7056C17.3144 16.4499 17.9715 16.1942 18.2178 15.3419L19.3676 11.4212C19.2855 15.3419 21.8316 17.3024 27.2522 17.3024C29.5517 17.3024 31.7694 17.2171 32.8369 17.0466C33.9045 16.8762 34.4795 16.6205 34.726 15.7682L34.9724 14.5749C36.1222 16.45 38.6683 17.3875 42.5284 17.3875C46.6349 17.3875 49.0166 17.3023 49.6737 17.0466C50.2486 16.8761 50.5771 16.5352 50.7414 16.109C50.7414 16.0238 50.7414 15.9386 50.8235 15.8533L51.3163 14.2339C51.3984 13.9782 51.2342 13.8077 50.9056 13.8077L48.2775 13.9782C46.5528 14.0634 45.1567 14.1487 44.171 14.1487C42.2819 14.1487 41.0501 13.9782 40.3109 13.7225C39.2432 13.2963 38.7504 12.5293 38.8326 11.2507L47.1277 10.1427C50.8236 9.63129 53.3696 8.43804 54.6016 6.56297L51.727 16.5352C51.6449 16.7056 51.727 16.8761 51.8092 16.9613C51.8913 17.0466 52.0555 17.1318 52.3841 17.1318H55.8335C56.4084 17.1318 56.6548 16.7909 56.7369 16.5352L59.7757 5.54024C60.1863 4.09129 61.4183 3.40941 63.7179 3.40941C65.7711 3.40941 67.2494 3.40941 68.2351 3.49464H68.3172C68.4814 3.49464 68.81 3.40941 69.0564 2.98324L69.5491 1.44906C69.5491 1.19336 69.5488 0.937565 69.3846 0.767099ZM14.0293 13.8929C12.9616 14.0633 11.4012 14.1486 9.43 14.1486C5.89848 14.1486 4.42006 13.3815 4.83071 11.9325C5.15924 10.9097 6.06266 10.2279 7.54093 10.0575L15.5075 8.94947L14.0293 13.8929ZM50.7418 5.02876C50.4133 6.13677 48.8527 6.90382 46.0604 7.32998L39.4079 8.26755L39.5721 7.67092C40.147 5.79586 40.8862 4.60256 41.8717 3.92062C42.8573 3.23876 44.4998 2.89782 46.7995 2.89782C49.8383 2.98306 51.1525 3.66503 50.7418 5.02876Z" fill="#9F9F9F"/>
</svg>
