<svg width="103" height="22" viewBox="0 0 103 22" fill="none" xmlns="http://www.w3.org/2000/svg">
<path d="M53.2395 14.8004C53.5207 14.9678 53.8835 15.0534 54.3279 15.0575C54.3671 15.0575 54.3863 15.0772 54.3856 15.1164C54.3822 15.2872 54.3596 15.4809 54.3178 15.6977C54.2207 16.199 54.0977 16.9174 53.9486 17.8529C53.9432 17.8875 53.9233 17.9058 53.8889 17.9078C52.994 17.9545 52.1005 17.8299 51.2083 17.5338C49.5189 16.9719 49.0132 15.6072 49.0121 13.8869C49.0095 9.46129 49.0088 5.03567 49.0101 0.610041C49.0101 0.593407 49.0159 0.577323 49.0265 0.564665C49.037 0.552007 49.0517 0.543599 49.0678 0.540944L52.4232 0.00747061C52.4327 0.00600904 52.4424 0.00662156 52.4516 0.00926609C52.4608 0.0119106 52.4694 0.0165251 52.4767 0.0227946C52.484 0.0290642 52.4898 0.0368409 52.4939 0.0455948C52.4979 0.0543488 52.5 0.063874 52.5 0.0735198C52.5 4.35485 52.5007 8.64195 52.5021 12.9348C52.5021 13.6624 52.5435 14.3858 53.2395 14.8004Z" fill="#9F9F9F"/>
<path d="M88.671 3.65062C88.6009 3.73055 88.4721 3.71328 88.2846 3.59879C87.5657 2.80959 86.7757 2.10744 85.9145 1.49234C85.5655 1.24237 85.0304 0.945653 84.6662 0.892814C83.4958 0.72007 84.0795 2.68325 84.2707 3.19945C84.6025 4.09264 84.9667 4.93807 85.4249 5.81398C86.7379 8.3252 88.1885 10.7494 89.7767 13.0865C89.8003 13.1215 89.814 13.1622 89.8165 13.2042C89.819 13.2462 89.8101 13.2881 89.7909 13.3253C89.0524 14.7621 88.2351 16.1518 87.3388 17.4945C87.3348 17.5005 87.3294 17.5054 87.323 17.5087C87.3166 17.512 87.3095 17.5136 87.3023 17.5134C87.2952 17.5132 87.2882 17.5111 87.282 17.5075C87.2758 17.5038 87.2706 17.4987 87.267 17.4925C86.4021 15.9764 85.6232 14.4197 84.91 12.8589C83.9275 10.7108 83.1411 8.48981 82.551 6.19605C82.2395 4.98379 81.4262 1.14786 82.8909 0.218097C84.6288 -0.884414 87.704 2.49323 88.671 3.65062Z" fill="#9F9F9F"/>
<path d="M10.2391 9.1935C11.7888 9.73748 12.6244 10.8471 12.7458 12.5224C13.0422 16.6154 9.50978 17.7758 6.19587 17.9018C4.14238 17.9804 2.11722 17.8446 0.120377 17.4943C0.0866468 17.4884 0.0560899 17.4707 0.0340751 17.4445C0.0120602 17.4183 -4.79817e-06 17.3852 1.43173e-09 17.3511V2.21262C1.43173e-09 2.14624 0.0323702 2.10796 0.0971107 2.0978C1.5214 1.8729 2.94704 1.73741 4.37403 1.69134C5.87588 1.64325 7.29241 1.78178 8.62364 2.10695C9.56541 2.33659 10.5588 2.89039 11.1617 3.64843C11.8064 4.45795 12.0694 5.42735 11.9507 6.55662C11.8303 7.70079 11.1505 8.50558 10.23 9.12237C10.2237 9.12642 10.2187 9.13218 10.2155 9.13899C10.2123 9.1458 10.2111 9.15338 10.2121 9.16084C10.2131 9.1683 10.2161 9.17533 10.2209 9.18111C10.2257 9.1869 10.232 9.19119 10.2391 9.1935ZM3.58501 4.68692L3.59715 8.04831C3.59715 8.05586 3.60013 8.0631 3.60544 8.06843C3.61075 8.07377 3.61796 8.07677 3.62547 8.07677L6.18575 8.06762C6.77449 8.06558 7.3386 7.90591 7.75403 7.6237C8.16947 7.34149 8.40221 6.95986 8.40109 6.56272L8.39907 6.14C8.39852 5.94326 8.34051 5.74863 8.22837 5.56723C8.11622 5.38583 7.95212 5.22121 7.74546 5.08278C7.5388 4.94435 7.29361 4.83482 7.02391 4.76045C6.75421 4.68608 6.46527 4.64832 6.17362 4.64933L3.61333 4.65847C3.60582 4.65847 3.59861 4.66147 3.5933 4.66681C3.58799 4.67214 3.58501 4.67938 3.58501 4.68692ZM3.58399 11.0246L3.59613 14.7457C3.59613 14.7689 3.60069 14.7918 3.60955 14.8132C3.61841 14.8346 3.63139 14.854 3.64775 14.8704C3.66411 14.8867 3.68352 14.8996 3.70487 14.9084C3.72622 14.9172 3.74908 14.9216 3.77215 14.9215L6.39313 14.9123C6.74197 14.9111 7.08725 14.8625 7.40924 14.7692C7.73122 14.6758 8.02362 14.5396 8.26972 14.3684C8.51583 14.1971 8.71083 13.9941 8.84358 13.771C8.97634 13.5479 9.04425 13.309 9.04344 13.068L9.04142 12.6657C9.0398 12.1789 8.75838 11.7131 8.25907 11.3707C7.75977 11.0283 7.08347 10.8372 6.37896 10.8396L3.75799 10.8488C3.71175 10.8491 3.66749 10.8677 3.63489 10.9006C3.60229 10.9336 3.58399 10.9781 3.58399 11.0246Z" fill="#9F9F9F"/>
<path d="M39.3508 12.4941V17.6286C39.3508 17.6808 39.3249 17.7069 39.2729 17.7069H35.785C35.7646 17.7069 35.7451 17.6987 35.7307 17.6843C35.7163 17.6698 35.7081 17.6501 35.7081 17.6297L35.7061 2.20567C35.7062 2.17875 35.7157 2.15275 35.7329 2.13229C35.7502 2.11182 35.774 2.09822 35.8002 2.09389C37.9987 1.72808 40.1594 1.62443 42.2823 1.78295C43.1037 1.8446 43.9096 2.01328 44.7 2.28899C46.619 2.96066 47.8339 4.19222 47.9856 6.32713C48.2891 10.6081 45.7713 11.9769 42.0234 12.3691C41.2526 12.4494 40.2865 12.4138 39.4156 12.428C39.3724 12.4287 39.3508 12.4507 39.3508 12.4941ZM39.3265 4.85373L39.3731 9.31661C39.3731 9.32443 39.3762 9.33192 39.3817 9.33745C39.3872 9.34297 39.3946 9.34608 39.4024 9.34608L41.6339 9.32271C41.98 9.31911 42.3221 9.26219 42.6407 9.1552C42.9594 9.04821 43.2483 8.89324 43.491 8.69914C43.7338 8.50505 43.9255 8.27563 44.0554 8.02398C44.1852 7.77234 44.2506 7.50339 44.2478 7.23251L44.2438 6.83621C44.241 6.56532 44.1701 6.29778 44.0351 6.04888C43.9001 5.79998 43.7037 5.5746 43.457 5.38559C43.2104 5.19659 42.9183 5.04768 42.5975 4.94735C42.2767 4.84703 41.9335 4.79726 41.5874 4.80089L39.3559 4.82426C39.352 4.82426 39.3482 4.82502 39.3447 4.8265C39.3411 4.82798 39.3379 4.83015 39.3351 4.83289C39.3324 4.83563 39.3302 4.83887 39.3288 4.84245C39.3273 4.84602 39.3265 4.84986 39.3265 4.85373Z" fill="#9F9F9F"/>
<path d="M29.5647 8.56055C29.5444 8.56055 29.5248 8.56858 29.5104 8.58287C29.496 8.59717 29.4879 8.61655 29.4879 8.63676C29.4838 9.96181 29.4842 11.2909 29.4889 12.6241C29.4909 13.3354 29.6103 14.3668 30.2476 14.7936C31.0386 15.323 32.7057 14.9988 33.5443 14.6879C33.6097 14.6642 33.6488 14.6865 33.6616 14.7549L34.136 17.2811C34.1405 17.306 34.1362 17.3317 34.1238 17.3538C34.1115 17.3759 34.0918 17.3929 34.0683 17.402C32.7519 17.8952 31.4061 18.074 30.0311 17.9385C26.8962 17.6306 26.001 15.6898 25.999 12.7725C25.9963 9.43613 25.9959 6.10861 25.9979 2.78989C25.9979 2.76663 26.0061 2.74412 26.0212 2.72642C26.0362 2.70872 26.057 2.69699 26.0799 2.69336L29.4272 2.17106C29.4697 2.16497 29.4906 2.18326 29.4899 2.22594L29.4848 5.6107C29.4848 5.63792 29.4955 5.66402 29.5145 5.68327C29.5334 5.70252 29.5592 5.71333 29.586 5.71333L33.5696 5.71434C33.5859 5.71434 33.6016 5.72087 33.6132 5.7325C33.6248 5.74412 33.6313 5.75989 33.6313 5.77633L33.6343 8.48841C33.6343 8.50781 33.6265 8.52642 33.6127 8.54014C33.5988 8.55386 33.58 8.56157 33.5604 8.56157L29.5647 8.56055Z" fill="#9F9F9F"/>
<path d="M88.2846 3.59879C88.4721 3.71328 88.6009 3.73055 88.671 3.65062C89.3953 3.73123 90.4629 3.87975 91.8744 4.09584C94.2961 4.4664 96.6544 5.07981 98.9493 5.93607C100.026 6.33846 103.198 7.70517 102.717 9.36656C102.198 11.1631 97.8447 11.8317 96.3628 11.9912C96.3209 11.9953 96.3085 11.978 96.3253 11.9394C96.3712 11.8344 96.4551 11.7718 96.5772 11.7514C97.9691 11.5137 99.2501 11.1526 100.42 10.6682C100.604 10.5924 100.839 10.4305 101.125 10.1825C101.855 9.54947 100.969 9.02209 100.391 8.82089C98.6894 8.2295 96.7724 8.07505 94.985 7.96835C92.5842 7.82542 90.1966 7.77054 87.8221 7.80374C87.785 7.80438 87.7483 7.79502 87.716 7.77662C87.6836 7.75822 87.6567 7.73145 87.638 7.69908C86.882 6.38148 86.2167 5.03137 85.6421 3.64874C85.6158 3.58642 85.6027 3.5285 85.6027 3.47498C85.6027 3.46586 85.6045 3.45684 85.6081 3.44848C85.6117 3.44011 85.617 3.43259 85.6237 3.42639C85.6303 3.42018 85.6382 3.41543 85.6468 3.41242C85.6553 3.40942 85.6644 3.40823 85.6735 3.40893L88.2846 3.59879Z" fill="#9F9F9F"/>
<path d="M17.1004 12.8285C17.0323 12.8285 17.004 12.8624 17.0154 12.9301C17.506 15.8312 21.8548 15.1382 23.6614 14.4746C23.6925 14.4638 23.7107 14.4743 23.7161 14.5061L24.1713 17.1969C24.1755 17.2223 24.1709 17.2484 24.1581 17.2707C24.1454 17.2929 24.1254 17.31 24.1015 17.3188C22.5669 17.9031 20.8624 18.0697 19.1954 17.9986C16.4793 17.8828 14.2022 16.3799 13.5933 13.613C12.8083 10.0494 14.2629 6.22562 18.1555 5.46453C19.078 5.28434 20.0525 5.33481 21.0789 5.61594C22.8667 6.10504 24.0219 7.20958 24.5445 8.92957C24.9053 10.1164 24.991 11.4022 24.8015 12.7868C24.7981 12.816 24.7816 12.8305 24.7519 12.8305L17.1004 12.8285ZM17.065 10.4934L21.4936 10.4853C21.4987 10.4853 21.5036 10.4832 21.5072 10.4796C21.5108 10.476 21.5129 10.4711 21.5129 10.466V10.4548C21.5118 9.85759 21.2754 9.28528 20.8558 8.86375C20.4362 8.44223 19.8676 8.20602 19.2753 8.2071C18.982 8.20763 18.6916 8.2664 18.4208 8.38005C18.1501 8.4937 17.9041 8.66002 17.6971 8.86949C17.4901 9.07896 17.326 9.3275 17.2142 9.6009C17.1025 9.8743 17.0452 10.1672 17.0458 10.4629V10.4741C17.0458 10.4792 17.0478 10.4841 17.0514 10.4878C17.055 10.4914 17.0599 10.4934 17.065 10.4934Z" fill="#9F9F9F"/>
<path d="M62.247 10.3428C62.2632 9.03669 61.6444 8.34538 60.3907 8.26883C59.129 8.1916 57.9154 8.33318 56.7501 8.69357C56.6705 8.71796 56.6243 8.68883 56.6115 8.60618L56.1948 5.97642C56.19 5.94729 56.2022 5.929 56.2312 5.92154C58.2503 5.39315 60.4707 5.14013 62.4877 5.60552C64.9802 6.18066 65.6013 8.14282 65.6013 10.4454C65.6007 12.7222 65.6007 15.0031 65.6013 17.2881C65.6014 17.3063 65.5952 17.3241 65.5838 17.3385C65.5724 17.3528 65.5565 17.363 65.5386 17.3673C64.0563 17.7176 62.5599 17.9117 61.0493 17.9496C58.6063 18.0116 55.7365 17.7951 55.1336 14.9571C55.0537 14.5831 55.083 14.1279 55.082 13.7123C55.0749 11.3477 57.3864 10.3834 59.3549 10.2635C60.3847 10.2005 61.3359 10.2378 62.2085 10.3753C62.2342 10.3793 62.247 10.3685 62.247 10.3428ZM62.2702 14.9774L62.2621 12.8577C62.262 12.8199 62.2545 12.7826 62.24 12.7477C62.2255 12.7129 62.2043 12.6813 62.1776 12.6547C62.1509 12.6281 62.1193 12.607 62.0845 12.5927C62.0497 12.5783 62.0125 12.571 61.9749 12.5712L60.1814 12.5773C59.7443 12.5789 59.3257 12.7094 59.0175 12.9399C58.7093 13.1705 58.5367 13.4823 58.5375 13.8068V14.0527C58.538 14.2136 58.5811 14.3728 58.6645 14.5212C58.7479 14.6696 58.8698 14.8042 59.0234 14.9175C59.1771 15.0307 59.3593 15.1203 59.5597 15.1812C59.7601 15.242 59.9748 15.2729 60.1915 15.2721L61.985 15.266C62.0226 15.2658 62.0598 15.2583 62.0945 15.2437C62.1291 15.2291 62.1606 15.2078 62.1871 15.181C62.2136 15.1542 62.2346 15.1224 62.2488 15.0875C62.2631 15.0526 62.2704 15.0151 62.2702 14.9774Z" fill="#9F9F9F"/>
<path d="M72.7367 13.3385C73.581 10.8557 74.3343 8.34548 74.9965 5.80784C75.0035 5.78026 75.0194 5.75581 75.0417 5.73832C75.0641 5.72084 75.0916 5.71134 75.1199 5.71131L78.5967 5.71334C78.6291 5.71334 78.6409 5.72892 78.6321 5.76008C77.4222 9.92761 75.9019 13.9732 74.0709 17.8969C73.2364 19.6863 72.2653 21.4381 70.1248 21.8049C68.9372 22.0082 67.7513 21.9245 66.5671 21.5539C66.4558 21.5194 66.3614 21.4808 66.2839 21.4381C66.2569 21.4232 66.2468 21.4002 66.2535 21.369L66.8432 18.7179C66.8513 18.6813 66.8729 18.6695 66.908 18.6823C67.7085 18.9689 68.5069 19.0546 69.3034 18.9394C70.055 18.8307 70.6862 17.8776 70.9259 17.2313C70.9374 17.1994 70.9354 17.1683 70.9199 17.1378C69.0464 13.5082 67.5352 9.73251 66.386 5.81089C66.3671 5.74518 66.3917 5.71233 66.4599 5.71233L70.0267 5.71436C70.0424 5.71439 70.0577 5.71956 70.0703 5.72909C70.0829 5.73862 70.0921 5.75199 70.0965 5.7672C70.7971 8.336 71.629 10.8608 72.592 13.3415C72.5977 13.3563 72.6078 13.3691 72.6209 13.3779C72.634 13.3868 72.6496 13.3914 72.6654 13.3911C72.6812 13.3907 72.6966 13.3855 72.7093 13.3761C72.7221 13.3667 72.7316 13.3535 72.7367 13.3385Z" fill="#9F9F9F"/>
<path d="M85.5585 14.7396C85.5727 14.8361 85.598 14.9693 85.5737 15.0627C85.251 16.3278 84.9718 17.5929 84.9314 18.9048C84.9172 19.359 85.0062 20.6038 85.772 20.4117C86.4437 20.244 87.2651 19.2614 87.7 18.6375C88.3737 17.6729 88.9972 16.6757 89.5704 15.646C90.7938 13.4491 91.9146 11.2106 92.9329 8.93034C92.9481 8.89577 92.9732 8.86651 93.0051 8.84625C93.037 8.82599 93.0741 8.81565 93.1119 8.81653C94.6408 8.85786 96.1638 8.97166 97.6812 9.15796C97.6926 9.15934 97.7034 9.16351 97.7128 9.17009C97.7222 9.17668 97.7298 9.18548 97.735 9.19571C97.7402 9.20595 97.7428 9.21731 97.7426 9.2288C97.7424 9.24029 97.7394 9.25156 97.7338 9.2616C95.5842 13.2113 92.9035 17.0849 89.5785 20.1221C88.6479 20.9726 87.2226 21.9969 86.0916 21.9898C83.4191 21.9735 84.7999 17.1245 85.1357 15.7903C85.224 15.4407 85.3356 15.0875 85.4705 14.7305C85.5123 14.62 85.5417 14.6231 85.5585 14.7396Z" fill="#9F9F9F"/>
</svg>
