<svg width="71" height="20" viewBox="0 0 71 20" fill="none" xmlns="http://www.w3.org/2000/svg">
<path d="M10.6142 7.04608C12.3977 5.66236 12.6693 3.16492 11.2205 1.46621C10.3977 0.502488 9.19688 0.00374991 7.98821 0H4.14174C3.22836 0.00374991 2.30709 0.296242 1.53938 0.888728C0.527561 1.67246 0 2.81618 0 3.9674V9.46852C0 9.46852 0.889766 8.0698 3.17324 7.92731H4.00395C4.12206 7.93106 4.23623 7.93106 4.35434 7.92731H7.82679C8.80317 7.9648 9.7953 7.67606 10.6142 7.04608Z" fill="#9F9F9F"/>
<path d="M11.8111 17.0358C13.7796 15.5134 14.0788 12.7572 12.4804 10.8822C11.5748 9.82099 10.252 9.26976 8.91735 9.26601H4.56301C3.55513 9.26976 2.53938 9.59225 1.69686 10.2447C0.578742 11.111 0 12.3709 0 13.6421V19.7058C0 19.7058 0.980318 18.1645 3.49607 18.007H4.40946C4.53938 18.0108 4.66537 18.0108 4.79529 18.007H8.73625C9.81499 18.052 10.9095 17.7333 11.8111 17.0358Z" fill="#9F9F9F"/>
<path fill-rule="evenodd" clip-rule="evenodd" d="M19.445 0.05255H21.9607C22.193 0.05255 22.382 0.232545 22.382 0.45379V5.19367C23.7166 4.0762 25.4371 3.40122 27.319 3.40122C31.5395 3.40122 34.9568 6.79488 34.9568 10.9798C34.9568 15.1647 31.5356 18.5583 27.319 18.5583C25.4371 18.5583 23.7127 17.8834 22.382 16.7621V17.7934C22.382 18.0146 22.193 18.1946 21.9607 18.1946H19.445C19.2127 18.1946 19.0237 18.0146 19.0237 17.7934V0.45379C19.0237 0.232545 19.2127 0.05255 19.445 0.05255ZM26.9765 6.49864C29.4962 6.49864 31.5356 8.50484 31.5356 10.9835C31.5356 13.4585 29.4922 15.4684 26.9765 15.4684C24.4568 15.4684 22.4174 13.4622 22.4174 10.9835C22.4174 8.50484 24.4568 6.49864 26.9765 6.49864Z" fill="#9F9F9F"/>
<path fill-rule="evenodd" clip-rule="evenodd" d="M37.2875 0.05255H39.8033C40.0356 0.05255 40.2245 0.232545 40.2245 0.45379V2.90623C40.2245 3.12747 40.0356 3.30747 39.8033 3.30747H37.2875C37.0552 3.30747 36.8663 3.12747 36.8663 2.90623V0.45379C36.8663 0.232545 37.0552 0.05255 37.2875 0.05255Z" fill="#9F9F9F"/>
<path fill-rule="evenodd" clip-rule="evenodd" d="M37.2875 4.48863H39.8033C40.0356 4.48863 40.2245 4.66862 40.2245 4.88987V17.7896C40.2245 18.0108 40.0356 18.1908 39.8033 18.1908H37.2875C37.0552 18.1908 36.8663 18.0108 36.8663 17.7896V4.88987C36.8663 4.66862 37.0552 4.48863 37.2875 4.48863Z" fill="#9F9F9F"/>
<path fill-rule="evenodd" clip-rule="evenodd" d="M48.9923 4.94993V7.25237C48.9923 7.46612 48.8112 7.63861 48.5867 7.63861H45.9214V13.3197C45.9214 14.1747 46.4686 14.7747 47.0946 15.0334C48.1891 15.4909 49.0395 14.8947 49.0277 15.5922L49.0356 18.0296C49.0356 18.1909 49.0631 18.5433 48.7009 18.5433C46.8112 18.5433 45.5434 18.5771 44.0552 17.3884C43.4174 16.8784 42.5592 15.3972 42.5592 14.4034V0.45379C42.5592 0.232545 42.7481 0.05255 42.9804 0.05255H45.4962C45.7285 0.05255 45.9174 0.232545 45.9174 0.45379V4.56369H48.5828C48.8112 4.56369 48.9923 4.73619 48.9923 4.94993Z" fill="#9F9F9F"/>
<path fill-rule="evenodd" clip-rule="evenodd" d="M67.7719 0.05255H70.2876C70.5199 0.05255 70.7089 0.232545 70.7089 0.45379V17.7896C70.7089 18.0109 70.5199 18.1909 70.2876 18.1909H67.7719C67.5396 18.1909 67.3506 18.0109 67.3506 17.7896V0.45379C67.3506 0.232545 67.5396 0.05255 67.7719 0.05255Z" fill="#9F9F9F"/>
<path fill-rule="evenodd" clip-rule="evenodd" d="M57.4923 6.59612C58.9175 6.59612 59.4805 6.70111 60.6262 7.57109C61.1065 7.93858 61.8703 9.01855 61.9332 9.74604H53.4293C53.5553 8.33232 55.512 6.59612 57.4923 6.59612ZM49.7442 11.186C49.7442 12.1535 50.0474 13.3047 50.445 14.2084C50.7836 14.9847 51.445 15.8434 52.0395 16.4696C52.2364 16.6759 52.3269 16.6759 52.5553 16.8784C52.7954 17.0884 52.7836 17.1071 53.0671 17.2909C53.5159 17.5758 53.7954 17.7558 54.3072 17.9996C57.9135 19.7058 62.949 18.5283 64.764 14.6997C65.3742 13.4134 65.2403 13.7097 61.5514 13.7097C61.2797 13.7097 61.0828 14.1634 60.9293 14.3772C59.8624 15.8846 56.7049 16.1734 54.9608 14.7634C54.3348 14.2572 53.508 13.4134 53.4214 12.4497H65.327C65.8624 11.3847 65.327 8.76731 64.764 7.67609C61.012 0.412517 49.7442 3.2062 49.7442 11.186Z" fill="#9F9F9F"/>
</svg>
