<svg width="68" height="26" viewBox="0 0 68 26" fill="none" xmlns="http://www.w3.org/2000/svg">
<path fill-rule="evenodd" clip-rule="evenodd" d="M54.9068 13.4439C53.5886 12.0571 51.9942 11.3805 50.1856 11.3805C48.3769 11.3805 46.8135 12.0577 45.5257 13.4439C44.2074 14.8302 43.563 16.5068 43.563 18.4408C43.563 20.3747 44.2074 22.0519 45.5257 23.4057C46.8135 24.7924 48.3769 25.5016 50.1856 25.5016C51.9942 25.5016 53.5886 24.7919 54.9068 23.4057C56.1946 22.0519 56.838 20.3753 56.838 18.4408C56.838 16.5063 56.1946 14.8297 54.9068 13.4439ZM52.669 21.0519C51.9942 21.7935 51.1669 22.1483 50.1861 22.1483C49.2361 22.1483 48.4078 21.7935 47.734 21.0519C47.0592 20.3103 46.6914 19.4397 46.6914 18.4408C46.6914 17.3768 47.0592 16.5068 47.734 15.7972C48.4078 15.0556 49.2361 14.7007 50.1861 14.7332C51.1674 14.7007 51.9947 15.0556 52.7004 15.7972C53.3438 16.5068 53.6818 17.3768 53.7117 18.4408C53.6813 19.4397 53.3433 20.3103 52.669 21.0519Z" fill="#9F9F9F"/>
<path fill-rule="evenodd" clip-rule="evenodd" d="M8.21641 7.93082C5.91685 7.89832 4.0165 8.7369 2.42216 10.4775C0.797419 12.1861 0 14.217 0 16.6352C0 19.021 0.797419 21.1163 2.42216 22.8249C4.0165 24.5016 5.91685 25.3401 8.21641 25.3401C10.0555 25.3401 11.742 24.76 13.2132 23.5666C14.6541 22.3417 15.6045 20.826 16.0949 18.9565H12.7532C12.3326 19.8425 11.7115 20.6063 10.9446 21.1808C10.0864 21.729 9.19723 22.0194 8.21641 22.0194C6.80597 22.0194 5.61034 21.4712 4.62951 20.4392C3.61779 19.3753 3.12738 18.1179 3.15778 16.6352C3.12688 15.152 3.61779 13.8947 4.62951 12.8307C5.61034 11.7993 6.80647 11.251 8.21641 11.251C9.19723 11.251 10.0864 11.5414 10.9446 12.1216C11.7111 12.6698 12.3246 13.4434 12.7532 14.3464H16.0949C15.6045 12.4764 14.6541 10.9292 13.2132 9.73637C11.7415 8.511 10.0555 7.89885 8.21641 7.93082ZM28.4499 11.348C26.3039 11.3155 24.8017 11.9282 23.9435 13.1211C23.3918 13.8627 23.1157 14.8297 23.0235 16.055H26.2117C26.273 15.4748 26.4569 15.0875 26.6717 14.8297C27.0086 14.3784 27.5608 14.1525 28.3577 14.185C29.0325 14.1525 29.5533 14.282 29.9217 14.5073C30.2895 14.7007 30.4425 15.0875 30.4734 15.6357C30.4734 16.087 30.2282 16.4418 29.7377 16.6672L27.2852 17.0865C26.1509 17.2479 25.2313 17.5377 24.5261 17.957C23.3305 18.6986 22.7484 19.891 22.7788 21.6001C22.7484 22.793 23.1162 23.76 23.8518 24.4696C24.4957 25.0498 25.3843 25.3726 26.4579 25.4046C28.2052 25.3721 29.5847 24.9209 30.5661 24.0178V25.4046H33.7543V15.5393C33.7543 13.9271 33.2025 12.7987 32.1599 12.2186C31.056 11.6059 29.8295 11.316 28.4499 11.348ZM29.7991 18.9245L30.4121 18.5697V19.9235C30.4121 21.0844 30.1056 21.8905 29.5229 22.3417C28.9099 22.793 28.266 23.0183 27.5299 23.0183C27.0699 23.0183 26.7021 22.8894 26.3956 22.6321C26.0891 22.3417 25.9356 21.9224 25.9356 21.3103C25.9356 20.6331 26.1808 20.1494 26.7021 19.7945C27.0086 19.6017 27.5299 19.4397 28.2042 19.3438L29.7991 18.9245Z" fill="#9F9F9F"/>
<path fill-rule="evenodd" clip-rule="evenodd" d="M20.9083 7.93081H17.7196V25.4046H20.9083V7.93081ZM41.2031 11.8318C40.3444 12.1861 39.5784 12.7987 38.935 13.7337V12.0252L35.8998 11.9927V25.4046H39.0576V18.989C39.0576 17.8925 39.1802 17.119 39.4558 16.6357C39.6701 16.12 40.0688 15.7007 40.5597 15.3459C41.1114 14.9591 41.6936 14.7657 42.3071 14.7657L43.2884 14.8302L43.2575 11.413L42.4302 11.4775L41.2031 11.8318ZM57.3902 11.8962L65.0848 3.80398L63.0619 1.67662L55.3673 9.76834L57.3902 11.8962ZM51.9942 8.67243V0H49.1434V8.67243H51.9942ZM58.8007 15.2489V18.2474H67.2314V15.2489H58.8007Z" fill="#9F9F9F"/>
</svg>
