<svg width="91" height="23" viewBox="0 0 91 23" fill="none" xmlns="http://www.w3.org/2000/svg">
<path d="M22.4753 12.0486H8.69224C8.57685 11.6891 8.51134 11.3108 8.49811 10.9278C8.50548 10.5621 8.5713 10.2011 8.69224 9.86299H22.4753C22.5131 9.26175 22.5779 8.66317 22.6694 8.06968H7.8672C7.25172 8.87539 6.90727 9.90952 6.89656 10.9838C6.88407 12.0631 7.23162 13.1065 7.8672 13.8979H22.6694C22.5723 13.2254 22.5238 12.609 22.4753 12.0486Z" fill="#9F9F9F"/>
<path d="M24.8532 20.0067H4.32425C2.53626 17.4312 1.5619 14.2289 1.5619 10.9281C1.5619 7.62718 2.53626 4.4249 4.32425 1.84943H24.8046C25.182 1.22786 25.5869 0.629284 26.0179 0.0561214H3.59627C1.28035 3.04603 0 6.91668 0 10.9281C0 14.9394 1.28035 18.8101 3.59627 21.8H26.0179C25.6028 21.2262 25.214 20.6276 24.8532 20.0067Z" fill="#9F9F9F"/>
<path d="M23.1546 16.0278H6.50821C5.55631 14.5554 5.04525 12.7654 5.05226 10.928C5.05221 9.09197 5.56256 7.30437 6.50821 5.82831H23.1546C23.3354 5.21726 23.546 4.61853 23.7855 4.035H5.78024C4.30689 5.92784 3.4918 8.38298 3.4918 10.928C3.4918 13.4731 4.30689 15.9282 5.78024 17.8211H23.7855C23.546 17.2375 23.3354 16.6388 23.1546 16.0278Z" fill="#9F9F9F"/>
<path d="M31.9389 8.46194C31.6755 8.12079 31.4751 7.72121 31.3499 7.28762C31.2247 6.85402 31.1774 6.39551 31.2109 5.9401V0.0558025H32.5213V5.88406C32.5001 6.166 32.5279 6.44998 32.6028 6.7194C32.6778 6.98883 32.7986 7.23829 32.958 7.4532C33.3541 7.78163 33.8293 7.95829 34.3169 7.95829C34.8045 7.95829 35.2798 7.78163 35.6758 7.4532C35.8353 7.23829 35.956 6.98883 36.031 6.7194C36.106 6.44998 36.1337 6.166 36.1126 5.88406V0.0558025H37.423V5.99614C37.4536 6.45132 37.405 6.90899 37.2799 7.34211C37.1549 7.77524 36.956 8.17506 36.695 8.51798C36.2097 9.07839 35.4332 9.30255 34.3655 9.30255C33.2978 9.30255 32.4242 9.02235 31.9389 8.46194Z" fill="#9F9F9F"/>
<path d="M43.3437 3.13825C43.5484 3.40444 43.7052 3.71487 43.8052 4.05156C43.9051 4.38826 43.9462 4.74451 43.9261 5.09968V9.07859H42.6643V5.37989C42.6926 4.92495 42.5903 4.47192 42.3731 4.09094C42.2534 3.95192 42.1089 3.84477 41.9496 3.77701C41.7903 3.70925 41.6202 3.68251 41.451 3.69866C41.2638 3.69133 41.0773 3.72721 40.9023 3.80419C40.7273 3.88118 40.5673 3.99772 40.4318 4.14699C40.1778 4.50931 40.056 4.97162 40.0921 5.43593V9.07859H38.8303V2.63388H40.0921V3.36241C40.2947 3.05558 40.561 2.8126 40.8663 2.6559C41.1716 2.49919 41.5062 2.4338 41.8392 2.46576C42.1161 2.45695 42.3917 2.51188 42.65 2.62734C42.9083 2.7428 43.1441 2.91648 43.3437 3.13825Z" fill="#9F9F9F"/>
<path d="M46.3528 2.63388H45.091V9.07859H46.3528V2.63388Z" fill="#9F9F9F"/>
<path d="M47.1292 2.63388H48.4881L49.9926 7.4534L51.4971 2.63388H52.856L50.7206 9.07859H49.3132L47.1292 2.63388Z" fill="#9F9F9F"/>
<path d="M57.4666 7.28539C57.5211 7.14353 57.554 6.99185 57.5637 6.83706H58.8255C58.785 7.45847 58.5422 8.03912 58.1461 8.46225C57.8902 8.745 57.5707 8.93916 57.224 9.02266C56.8469 9.16074 56.4547 9.23622 56.0592 9.24682C55.4854 9.25838 54.9182 9.10427 54.4091 8.7985C53.9633 8.49918 53.6077 8.04935 53.3899 7.50955C53.1819 6.98258 53.0822 6.40717 53.0988 5.82833C53.0892 5.52832 53.1055 5.22797 53.1473 4.93167C53.1895 4.66342 53.2545 4.40062 53.3414 4.1471C53.5409 3.61128 53.8802 3.16069 54.3121 2.85816C54.8073 2.56326 55.3564 2.40939 55.9136 2.40939C56.4708 2.40939 57.0199 2.56326 57.5151 2.85816C57.9457 3.13701 58.2863 3.56964 58.4858 4.09106C58.5955 4.39786 58.6769 4.7172 58.7284 5.04376C58.7713 5.43397 58.7875 5.82747 58.777 6.22061H54.3121C54.3121 6.53337 54.3787 6.84131 54.5062 7.11727C54.6142 7.40393 54.8021 7.64065 55.04 7.78976C55.3254 7.95543 55.6431 8.03267 55.9621 8.01392L56.6416 7.90184L57.1269 7.62164C57.321 7.5656 57.3696 7.39747 57.4666 7.28539ZM54.5547 4.53939C54.4554 4.72421 54.4048 4.93839 54.4091 5.15584H57.5637C57.5609 4.92168 57.511 4.69148 57.4181 4.48335C57.2933 4.20979 57.1094 3.97813 56.8842 3.81085C56.6165 3.64464 56.3142 3.56707 56.0107 3.58669C55.7155 3.57504 55.4233 3.65785 55.1664 3.82599C54.9094 3.99412 54.6977 4.24101 54.5547 4.53939Z" fill="#9F9F9F"/>
<path d="M63.1934 2.57783V3.86677H62.611C62.4043 3.85078 62.197 3.88769 62.0041 3.97488C61.8111 4.06207 61.6372 4.19737 61.4948 4.37114C61.2219 4.78954 61.0846 5.30505 61.1065 5.8282V9.13462H59.8447V2.63387H61.1065V3.3624C61.2733 3.08442 61.4994 2.86093 61.7631 2.71364C62.0267 2.56635 62.3188 2.50026 62.611 2.52179L63.1934 2.57783Z" fill="#9F9F9F"/>
<path d="M64.6978 8.96648C64.334 8.77137 64.0418 8.43388 63.8728 8.01379C63.7293 7.68426 63.6624 7.31736 63.6787 6.94901H64.892C64.8963 7.15908 64.9291 7.36707 64.989 7.56546C65.1346 8.01379 65.5229 8.18191 66.0567 8.18191C66.5906 8.18191 66.9303 8.01379 67.0759 7.67754C67.1149 7.57147 67.1315 7.45623 67.1244 7.3413C67.1315 7.22636 67.1149 7.11112 67.0759 7.00505L66.8332 6.66881L66.3964 6.44464L65.6685 6.27652C65.2976 6.1796 64.9389 6.02897 64.6008 5.82819C64.3198 5.65646 64.0974 5.37992 63.9698 5.04362C63.886 4.81373 63.8526 4.56346 63.8728 4.31509C63.8694 4.04422 63.9192 3.77598 64.0184 3.53051C64.1824 3.17224 64.4361 2.87932 64.7464 2.6899C65.1549 2.46768 65.6063 2.37116 66.0567 2.4097C66.5046 2.41045 66.9486 2.5054 67.3671 2.6899C67.7013 2.85969 67.9753 3.15628 68.1436 3.53051C68.2474 3.83345 68.2969 4.15755 68.2892 4.48321H67.0759C67.0667 4.29204 67.034 4.10334 66.9788 3.9228C66.9043 3.75386 66.7854 3.61652 66.6391 3.53051C66.458 3.43069 66.2561 3.39184 66.0567 3.41843C65.5714 3.41843 65.2802 3.58656 65.1831 3.86676C65.137 3.94979 65.1197 4.04984 65.1346 4.14696C65.1197 4.24409 65.137 4.34414 65.1831 4.42717C65.204 4.50654 65.2415 4.57875 65.2923 4.63741C65.3431 4.69606 65.4056 4.73934 65.4743 4.76341L65.9111 4.98758L66.5906 5.1557C66.9971 5.26094 67.3891 5.43067 67.7553 5.66007C68.0479 5.83208 68.2858 6.10675 68.4348 6.44464C68.5186 6.67453 68.552 6.9248 68.5318 7.17317C68.5345 7.46203 68.4849 7.74835 68.3862 8.01379C68.215 8.41877 67.9216 8.73762 67.5612 8.91044C67.1207 9.14608 66.6391 9.26115 66.1538 9.24669C65.6578 9.25512 65.1646 9.1602 64.6978 8.96648Z" fill="#9F9F9F"/>
<path d="M70.764 2.63388H69.5022V9.07859H70.764V2.63388Z" fill="#9F9F9F"/>
<path d="M77.413 0.0558025V9.07839H76.1997V8.29382C75.9975 8.59402 75.7294 8.82623 75.4232 8.96631C75.086 9.13131 74.7214 9.20787 74.3555 9.19047C73.8594 9.19496 73.372 9.03971 72.9481 8.74214C72.5592 8.46263 72.2542 8.05176 72.0745 7.56528C71.9719 7.29405 71.8907 7.01272 71.8318 6.72467C71.7728 6.4115 71.7402 6.09243 71.7348 5.77198C71.723 5.15734 71.8221 4.54661 72.026 3.97867C72.2057 3.49219 72.5107 3.08132 72.8995 2.80181C73.3235 2.50424 73.8109 2.34899 74.307 2.35348C74.6725 2.34136 75.0362 2.41772 75.3747 2.57764C75.6715 2.73636 75.9361 2.9655 76.1512 3.25013V0.0558025H77.413ZM76.1997 5.65989C76.2217 5.13674 76.0843 4.62123 75.8114 4.20283C75.667 4.03209 75.4928 3.89881 75.3004 3.81185C75.1079 3.72489 74.9016 3.68623 74.6952 3.69846C74.4068 3.67351 74.1187 3.75179 73.8702 3.92263C73.6322 4.07174 73.4443 4.30846 73.3363 4.59512C73.1885 4.9827 73.122 5.40513 73.1422 5.82802C73.122 6.2509 73.1885 6.67333 73.3363 7.06092C73.4474 7.34529 73.6345 7.58101 73.8702 7.73341C74.1228 7.89233 74.4078 7.96976 74.6952 7.95757C74.9016 7.9698 75.1079 7.93115 75.3004 7.84418C75.4928 7.75722 75.667 7.62394 75.8114 7.4532C75.9571 7.25255 76.0665 7.02025 76.1332 6.77001C76.1999 6.51976 76.2225 6.25664 76.1997 5.99614V5.65989Z" fill="#9F9F9F"/>
<path d="M83.7221 5.26792V9.0787H82.4603V8.35017C82.227 8.65947 81.9345 8.9016 81.6059 9.05727C81.2773 9.21294 80.9217 9.27785 80.5676 9.24682C80.135 9.25127 79.706 9.15601 79.3057 8.96662C78.977 8.80751 78.7155 8.50561 78.5778 8.126C78.4828 7.85922 78.4334 7.5738 78.4322 7.28539C78.423 6.99588 78.4729 6.70794 78.5778 6.44478C78.6664 6.20534 78.7992 5.99108 78.9668 5.81688C79.1344 5.64268 79.3329 5.51272 79.5484 5.43604C80.1151 5.24075 80.7042 5.14626 81.2955 5.15583H82.4603V4.59542C82.4506 4.47626 82.4174 4.36124 82.3632 4.25918C82.2176 3.81085 81.8294 3.64273 81.1985 3.64273C80.9322 3.63334 80.6672 3.6907 80.422 3.81085C80.2361 3.89796 80.0819 4.05627 79.9852 4.25918C79.9307 4.40104 79.8978 4.55272 79.8881 4.70751H78.6263C78.6185 4.38184 78.6681 4.05775 78.7719 3.75481C79.1116 2.9142 79.8881 2.46587 81.1499 2.46587C81.6673 2.44009 82.1827 2.55528 82.6544 2.80212C83.0324 3.00197 83.3283 3.36371 83.4795 3.81085C83.677 4.26067 83.7611 4.76556 83.7221 5.26792ZM82.4603 6.27665H81.3926L80.3734 6.38873C80.2588 6.40491 80.1496 6.45456 80.0562 6.53301C79.9628 6.61145 79.8882 6.7161 79.8396 6.83706C79.7966 6.96149 79.7799 7.09599 79.791 7.22935C79.7799 7.36271 79.7966 7.49721 79.8396 7.62163C79.9193 7.80625 80.0588 7.94719 80.2278 8.01392C80.4442 8.10933 80.6764 8.14762 80.9073 8.126C81.2266 8.15021 81.5456 8.07267 81.8294 7.90184C82.0673 7.75273 82.2552 7.51601 82.3632 7.22935C82.4292 6.91756 82.4618 6.59761 82.4603 6.27665Z" fill="#9F9F9F"/>
<path d="M90.371 0.0558025V9.07839H89.1577V8.29382C88.9555 8.59402 88.6874 8.82623 88.3812 8.96631C88.044 9.13131 87.6794 9.20787 87.3135 9.19047C86.8174 9.19496 86.33 9.03971 85.9061 8.74214C85.5172 8.46263 85.2122 8.05176 85.0325 7.56528C84.9299 7.29405 84.8487 7.01272 84.7898 6.72467C84.7307 6.4115 84.6982 6.09243 84.6928 5.77198C84.681 5.15734 84.7801 4.54661 84.984 3.97867C85.1637 3.49219 85.4687 3.08132 85.8575 2.80181C86.2815 2.50424 86.7688 2.34899 87.265 2.35348C87.6305 2.34136 87.9942 2.41772 88.3327 2.57764C88.6295 2.73636 88.8941 2.9655 89.1092 3.25013V0.0558025H90.371ZM89.1092 5.65989C89.1311 5.13674 88.9938 4.62123 88.7209 4.20283C88.5765 4.03209 88.4023 3.89881 88.2098 3.81185C88.0174 3.72489 87.8111 3.68623 87.6047 3.69846C87.3163 3.67351 87.0282 3.75179 86.7796 3.92263C86.5417 4.07174 86.3538 4.30846 86.2458 4.59512C86.0979 4.9827 86.0314 5.40513 86.0517 5.82802C86.0314 6.2509 86.0979 6.67333 86.2458 7.06092C86.3568 7.34529 86.5439 7.58101 86.7796 7.73341C87.0322 7.89233 87.3172 7.96976 87.6047 7.95757C87.8111 7.9698 88.0174 7.93115 88.2098 7.84418C88.4023 7.75722 88.5765 7.62394 88.7209 7.4532C88.8666 7.25255 88.976 7.02025 89.0426 6.77001C89.1093 6.51976 89.1319 6.25664 89.1092 5.99614V5.65989Z" fill="#9F9F9F"/>
<path d="M32.7637 21.3517C32.171 20.9581 31.7096 20.3465 31.4534 19.6145C31.1588 18.8192 31.026 17.9565 31.0651 17.0926C31.0543 16.2129 31.186 15.3386 31.4534 14.5147C31.7393 13.8044 32.1936 13.202 32.7637 12.7775C33.4158 12.3576 34.1526 12.1449 34.8991 12.161C35.3944 12.1625 35.8862 12.2572 36.3551 12.4412C36.7746 12.5999 37.1566 12.8684 37.4713 13.2258C37.7777 13.5255 38.0117 13.9116 38.1508 14.3466C38.3043 14.8149 38.4023 15.305 38.4419 15.8037H37.0831C37.0521 15.2019 36.847 14.6296 36.5007 14.1785C36.0865 13.8188 35.5907 13.606 35.0736 13.5662C34.5565 13.5264 34.0406 13.6613 33.5888 13.9543C33.2306 14.21 32.9441 14.5798 32.7637 15.0191C32.6541 15.3066 32.5727 15.6073 32.5211 15.9158C32.4601 16.3042 32.4276 16.6979 32.424 17.0926C32.4135 17.4858 32.4297 17.8793 32.4725 18.2695C32.5242 18.5779 32.6055 18.8787 32.7152 19.1661C32.8791 19.6178 33.1697 19.9927 33.5402 20.2309C33.9397 20.4919 34.3916 20.6272 34.8506 20.6232C35.1639 20.6268 35.4756 20.57 35.7727 20.4551C36.0347 20.3518 36.2805 20.2005 36.5007 20.0068C36.695 19.8017 36.8478 19.5498 36.9485 19.269C37.0491 18.9881 37.0951 18.6852 37.0831 18.3816H38.4419C38.4365 18.88 38.3544 19.3734 38.1993 19.8386C38.0602 20.2736 37.8262 20.6597 37.5198 20.9594C37.187 21.3178 36.7891 21.5858 36.3551 21.744C35.8862 21.9281 35.3944 22.0227 34.8991 22.0242C34.1517 21.995 33.4205 21.7647 32.7637 21.3517Z" fill="#9F9F9F"/>
<path d="M40.626 21.4074C40.1824 21.1212 39.8392 20.6654 39.6553 20.1185C39.4513 19.6098 39.3516 19.0537 39.3642 18.4933C39.3573 17.9154 39.4565 17.3424 39.6553 16.812C39.8548 16.2762 40.1942 15.8256 40.626 15.5231C41.1212 15.2282 41.6703 15.0743 42.2275 15.0743C42.7847 15.0743 43.3339 15.2282 43.8291 15.5231C44.2726 15.8093 44.6159 16.2651 44.7997 16.812C44.9919 17.3448 45.0909 17.9162 45.0909 18.4933C45.0909 19.0704 44.9919 19.6418 44.7997 20.1745C44.6002 20.7103 44.2609 21.1609 43.8291 21.4634C43.3374 21.7692 42.7859 21.9236 42.2275 21.9118C41.6626 21.9266 41.1061 21.7514 40.626 21.4074ZM43.1011 20.3987C43.3263 20.2314 43.5102 19.9997 43.635 19.7262C43.7638 19.3322 43.8296 18.9144 43.8291 18.4933C43.8597 18.0697 43.7927 17.6444 43.635 17.2604C43.527 16.9737 43.339 16.737 43.1011 16.5879C42.8281 16.4383 42.5297 16.3608 42.2275 16.3608C41.9254 16.3608 41.627 16.4383 41.354 16.5879C41.1288 16.7552 40.9449 16.9868 40.8201 17.2604C40.6686 17.6466 40.6019 18.0701 40.626 18.4933C40.6057 18.9162 40.6722 19.3386 40.8201 19.7262C40.9281 20.0128 41.116 20.2496 41.354 20.3987C41.6217 20.5649 41.924 20.6424 42.2275 20.6228C42.3787 20.6538 42.5338 20.65 42.6837 20.6115C42.8336 20.573 42.9755 20.5007 43.1011 20.3987Z" fill="#9F9F9F"/>
<path d="M50.7207 15.8035C50.9253 16.0697 51.0821 16.3801 51.1821 16.7168C51.2821 17.0535 51.3232 17.4098 51.303 17.7649V21.7438H50.0412V18.0451C50.0696 17.5902 49.9672 17.1372 49.75 16.7562C49.6304 16.6172 49.4858 16.51 49.3266 16.4423C49.1673 16.3745 48.9971 16.3478 48.8279 16.3639C48.6408 16.3566 48.4542 16.3925 48.2792 16.4695C48.1042 16.5464 47.9443 16.663 47.8088 16.8122C47.5547 17.1746 47.4329 17.6369 47.469 18.1012V21.7438H46.2072V15.2991H47.469V16.0277C47.6716 15.7208 47.9379 15.4779 48.2432 15.3212C48.5486 15.1645 48.8832 15.0991 49.2162 15.131C49.494 15.112 49.7722 15.1622 50.0318 15.2783C50.2914 15.3943 50.5263 15.5734 50.7207 15.8035Z" fill="#9F9F9F"/>
<path d="M53.3413 21.3513C53.1781 21.1279 53.0553 20.8689 52.9803 20.5898C52.9053 20.3106 52.8795 20.017 52.9045 19.7261V16.4757H52.0309V15.2989H52.9045V12.6649H54.1663V15.2989H55.7679V16.4757H54.1663V19.5019C54.1357 19.8005 54.2051 20.1013 54.3604 20.3425C54.4499 20.4424 54.5568 20.5191 54.6739 20.5674C54.7911 20.6158 54.9159 20.6346 55.0399 20.6228L55.7193 20.5107V21.7436C55.3694 21.8364 55.0103 21.8741 54.6516 21.8557C54.4152 21.8756 54.1777 21.8413 53.9528 21.7548C53.7279 21.6682 53.5201 21.5311 53.3413 21.3513Z" fill="#9F9F9F"/>
<path d="M58.1946 15.2991H56.9328V21.7438H58.1946V15.2991Z" fill="#9F9F9F"/>
<path d="M64.1155 15.8035C64.3201 16.0697 64.477 16.3801 64.5769 16.7168C64.6769 17.0535 64.718 17.4098 64.6979 17.7649V21.7438H63.4361V18.0451C63.4644 17.5902 63.3621 17.1372 63.1449 16.7562C63.0252 16.6172 62.8807 16.51 62.7214 16.4423C62.5621 16.3745 62.3919 16.3478 62.2228 16.3639C62.0356 16.3566 61.849 16.3925 61.674 16.4695C61.499 16.5464 61.3391 16.663 61.2036 16.8122C60.9496 17.1746 60.8277 17.6369 60.8639 18.1012V21.7438H59.602V15.2991H60.8639V16.0277C61.0665 15.7208 61.3327 15.4779 61.6381 15.3212C61.9434 15.1645 62.278 15.0991 62.611 15.131C62.8889 15.112 63.167 15.1622 63.4266 15.2783C63.6862 15.3943 63.9211 15.5734 64.1155 15.8035Z" fill="#9F9F9F"/>
<path d="M70.0362 19.9503C70.0907 19.8085 70.1236 19.6568 70.1333 19.502H71.3951C71.3546 20.1234 71.1118 20.7041 70.7157 21.1272C70.4598 21.4099 70.1403 21.6041 69.7936 21.6876C69.4165 21.8257 69.0243 21.9012 68.6288 21.9118C68.055 21.9233 67.4878 21.7692 66.9787 21.4634C66.5329 21.1641 66.1772 20.7143 65.9595 20.1745C65.7515 19.6475 65.6518 19.0721 65.6684 18.4933C65.6588 18.1933 65.6751 17.8929 65.7169 17.5966C65.7591 17.3284 65.8241 17.0656 65.911 16.812C66.1105 16.2762 66.4498 15.8256 66.8817 15.5231C67.3769 15.2282 67.926 15.0743 68.4832 15.0743C69.0404 15.0743 69.5895 15.2282 70.0847 15.5231C70.5153 15.802 70.8559 16.2346 71.0554 16.756C71.1651 17.0628 71.2465 17.3821 71.298 17.7087C71.3409 18.0989 71.3571 18.4924 71.3466 18.8856H66.8817C66.8817 19.1983 66.9483 19.5063 67.0758 19.7822C67.1838 20.0689 67.3717 20.3056 67.6096 20.4547C67.895 20.6204 68.2127 20.6976 68.5317 20.6789L69.2112 20.5668C69.3863 20.5081 69.5508 20.4132 69.6965 20.2866C69.8906 20.2305 69.9392 20.1185 70.0362 19.9503ZM67.1243 17.2043C67.025 17.3891 66.9744 17.6033 66.9787 17.8208H70.1333C70.1305 17.5866 70.0806 17.3564 69.9877 17.1483C69.8629 16.8747 69.679 16.6431 69.4538 16.4758C69.1861 16.3096 68.8838 16.232 68.5803 16.2516C68.2832 16.2261 67.9862 16.3031 67.727 16.4727C67.4678 16.6423 67.258 16.8969 67.1243 17.2043Z" fill="#9F9F9F"/>
<path d="M77.0733 15.8035C77.278 16.0697 77.4348 16.3801 77.5348 16.7168C77.6347 17.0535 77.6758 17.4098 77.6557 17.7649V21.7438H76.3939V18.0451C76.4222 17.5902 76.3199 17.1372 76.1027 16.7562C75.983 16.6172 75.8385 16.51 75.6792 16.4423C75.5199 16.3745 75.3498 16.3478 75.1806 16.3639C74.9934 16.3566 74.8069 16.3925 74.6319 16.4695C74.4569 16.5464 74.2969 16.663 74.1614 16.8122C73.9074 17.1746 73.7856 17.6369 73.8217 18.1012V21.7438H72.5599V15.2991H73.8217V16.0277C74.0243 15.7208 74.2906 15.4779 74.5959 15.3212C74.9012 15.1645 75.2358 15.0991 75.5688 15.131C75.8467 15.112 76.1249 15.1622 76.3845 15.2783C76.644 15.3943 76.879 15.5734 77.0733 15.8035Z" fill="#9F9F9F"/>
<path d="M79.6941 21.3513C79.5309 21.1279 79.4081 20.8689 79.3331 20.5898C79.2581 20.3106 79.2323 20.017 79.2573 19.7261V16.4757H78.3838V15.2989H79.2573V12.6649H80.5191V15.2989H82.1207V16.4757H80.5191V19.5019C80.4885 19.8005 80.558 20.1013 80.7133 20.3425C80.8027 20.4424 80.9096 20.5191 81.0268 20.5674C81.144 20.6158 81.2687 20.6346 81.3927 20.6228L82.0722 20.5107V21.7436C81.7223 21.8364 81.3631 21.8741 81.0045 21.8557C80.768 21.8756 80.5305 21.8413 80.3056 21.7548C80.0807 21.6682 79.8729 21.5311 79.6941 21.3513Z" fill="#9F9F9F"/>
<path d="M88.1387 17.9328V21.6875H86.8768V20.959C86.6436 21.2683 86.351 21.5104 86.0224 21.6661C85.6938 21.8218 85.3383 21.8867 84.9841 21.8556C84.5515 21.8601 84.1226 21.7648 83.7223 21.5754C83.3935 21.4163 83.1321 21.1144 82.9943 20.7348C82.8994 20.468 82.8499 20.1826 82.8487 19.8942C82.8395 19.6047 82.8894 19.3168 82.9943 19.0536C83.083 18.8142 83.2157 18.5999 83.3833 18.4257C83.5509 18.2515 83.7494 18.1215 83.9649 18.0449C84.5316 17.8496 85.1208 17.7551 85.7121 17.7647H86.8768V17.2042C86.8671 17.0851 86.8339 16.9701 86.7798 16.868C86.6342 16.4197 86.2459 16.2516 85.615 16.2516C85.3487 16.2422 85.0838 16.2995 84.8385 16.4197C84.6526 16.5068 84.4984 16.6651 84.4017 16.868C84.3472 17.0099 84.3144 17.1615 84.3046 17.3163H83.0428C83.0351 16.9907 83.0846 16.6666 83.1884 16.3636C83.5281 15.523 84.3047 15.0747 85.5665 15.0747C86.0839 15.0489 86.5993 15.1641 87.071 15.4109C87.4489 15.6108 87.7448 15.9725 87.896 16.4197C88.0884 16.8915 88.172 17.4127 88.1387 17.9328ZM86.8768 18.9415H85.8091L84.79 19.0536C84.6753 19.0698 84.5661 19.1194 84.4727 19.1979C84.3793 19.2763 84.3048 19.381 84.2561 19.5019C84.1914 19.7581 84.1914 20.0303 84.2561 20.2865C84.3358 20.4711 84.4753 20.6121 84.6444 20.6788C84.8608 20.7742 85.0929 20.8125 85.3238 20.7909C85.6432 20.8151 85.9621 20.7375 86.2459 20.5667C86.4839 20.4176 86.6718 20.1809 86.7798 19.8942C86.8458 19.5824 86.8784 19.2625 86.8768 18.9415Z" fill="#9F9F9F"/>
<path d="M89.1576 12.6649H90.4194V21.7436H89.1576V12.6649Z" fill="#9F9F9F"/>
<path d="M45.7219 1.68123C46.1239 1.68123 46.4499 1.30487 46.4499 0.840614C46.4499 0.376356 46.1239 0 45.7219 0C45.3198 0 44.9939 0.376356 44.9939 0.840614C44.9939 1.30487 45.3198 1.68123 45.7219 1.68123Z" fill="#9F9F9F"/>
<path d="M57.5637 14.29C57.9657 14.29 58.2916 13.9137 58.2916 13.4494C58.2916 12.9852 57.9657 12.6088 57.5637 12.6088C57.1616 12.6088 56.8357 12.9852 56.8357 13.4494C56.8357 13.9137 57.1616 14.29 57.5637 14.29Z" fill="#9F9F9F"/>
<path d="M70.1333 1.68123C70.5353 1.68123 70.8612 1.30487 70.8612 0.840614C70.8612 0.376356 70.5353 0 70.1333 0C69.7312 0 69.4053 0.376356 69.4053 0.840614C69.4053 1.30487 69.7312 1.68123 70.1333 1.68123Z" fill="#9F9F9F"/>
</svg>
