<svg width="78" height="26" viewBox="0 0 78 26" fill="none" xmlns="http://www.w3.org/2000/svg">
<path d="M0 18.0387V0.373893H2.86874V18.0387H0Z" fill="#9F9F9F"/>
<path d="M10.2121 5.22417C6.53403 5.22417 3.98873 8.28312 3.98873 11.7844C3.98873 15.692 6.75772 18.3839 10.2407 18.3839C13.5463 18.3839 16.4147 15.7415 16.4147 11.7759C16.4147 8.44125 14.0378 5.22417 10.2121 5.22417ZM10.1783 8.21758C12.1032 8.21758 13.52 9.83828 13.52 11.7956C13.52 13.8709 11.9579 15.3849 10.2303 15.3849C8.18894 15.3849 6.90424 13.6348 6.90424 11.8012C6.90424 9.79146 8.35468 8.21758 10.1783 8.21758Z" fill="#9F9F9F"/>
<path d="M23.6223 5.22417C19.9442 5.22417 17.3989 8.28312 17.3989 11.7844C17.3989 15.692 20.1679 18.3839 23.6509 18.3839C26.9565 18.3839 29.8249 15.7415 29.8249 11.7759C29.8249 9.4407 28.89 8.40455 28.89 8.40455L29.6851 8.10962V5.59122H25.6107C25.6107 5.59122 24.7274 5.22417 23.6223 5.22417ZM23.5886 8.21758C25.5134 8.21758 26.9302 9.83828 26.9302 11.7956C26.9302 13.8709 25.3681 15.3849 23.6405 15.3849C21.5991 15.3849 20.3145 13.6348 20.3145 11.8012C20.3145 9.79146 21.7649 8.21758 23.5886 8.21758Z" fill="#9F9F9F"/>
<path d="M26.9101 18.902C26.9101 20.9773 25.348 22.5025 23.6204 22.5025C21.579 22.5025 20.2892 20.7356 20.2892 18.902H17.3788C17.3788 22.8096 20.1478 25.5016 23.6308 25.5016C26.9364 25.5016 29.8048 22.8676 29.8048 18.902H26.9101Z" fill="#9F9F9F"/>
<path d="M30.974 18.0377V5.58962H33.8428V18.0377H30.974Z" fill="#9F9F9F"/>
<path d="M36.6284 18.038V8.37815H35.0901V5.58991H36.6284V1.76735H39.4972V5.58991H41.077V8.37815H39.4972V18.038H36.6284Z" fill="#9F9F9F"/>
<path d="M34.3022 2.05481C34.3022 3.18966 33.4516 4.10963 32.4025 4.10963C31.3533 4.10963 30.5028 3.18966 30.5028 2.05481C30.5028 0.919971 31.3533 0 32.4025 0C33.4516 0 34.3022 0.919971 34.3022 2.05481Z" fill="#9F9F9F"/>
<path d="M47.5264 5.21369C43.8309 5.21369 41.4485 8.27424 41.4485 11.8948C41.4485 15.6362 43.8388 18.3903 47.5862 18.3903C51.0818 18.3903 52.8014 16.0293 52.8014 16.0293L50.8837 13.9522C50.8837 13.9522 49.4357 15.6414 47.6226 15.6414C46.1111 15.6414 44.9026 14.7289 44.481 13.0556H53.4198V12.2011C53.4198 8.79172 51.5954 5.21369 47.5264 5.21369ZM47.4355 7.9457C48.757 7.9457 50.1085 8.71044 50.4107 10.5372H44.403C44.641 9.2531 45.6795 7.9457 47.4355 7.9457Z" fill="#9F9F9F"/>
<path d="M60.5953 18.3932C56.8894 18.3932 54.3642 15.3401 54.3642 11.7402C54.3642 8.02521 57.2181 5.21261 60.5834 5.21261C63.8368 5.21261 65.502 7.69683 65.502 7.69683L63.5008 9.85165C63.5008 9.85165 62.3416 8.23156 60.5698 8.23156C58.6061 8.23156 57.2634 9.85644 57.2634 11.7879C57.2634 13.8273 58.6917 15.3919 60.5477 15.3919C62.348 15.3919 63.498 13.7745 63.498 13.7745L65.5193 15.9281C65.5193 15.9281 63.8702 18.3932 60.5953 18.3932Z" fill="#9F9F9F"/>
<path d="M66.5631 18.048V0.329227H69.4318V6.83917C69.4318 6.83917 70.5303 5.21305 72.9197 5.21305C75.9236 5.21305 77.6639 7.62842 77.6639 10.7176V18.048H74.7951V11.1866C74.7951 9.11123 73.6006 8.2502 72.2772 8.2502C70.7695 8.2502 69.4318 9.17832 69.4318 11.3472V18.048H66.5631Z" fill="#9F9F9F"/>
</svg>
