<svg width="111" height="17" viewBox="0 0 111 17" fill="none" xmlns="http://www.w3.org/2000/svg">
<path d="M70.2725 0V1.7854H80.9216L81.9828 0H70.2725Z" fill="#9F9F9F"/>
<path d="M70.2725 7.21848V9.00388H80.9216L81.9828 7.21848H70.2725Z" fill="#9F9F9F"/>
<path d="M70.2725 14.437V16.2224H80.9216L81.9828 14.437H70.2725Z" fill="#9F9F9F"/>
<path d="M105.409 5.02694V3.9979C105.409 3.47289 105.302 2.95302 105.095 2.46798C104.888 1.98293 104.584 1.5422 104.201 1.17096C103.818 0.799726 103.364 0.505241 102.864 0.304328C102.363 0.103416 101.827 1.27685e-07 101.286 0H93.6931V16.2282H95.5343V9.02481H98.9832L103.281 16.2282H105.403L101.106 9.02481H101.281C101.822 9.02548 102.359 8.92257 102.86 8.72196C103.361 8.52135 103.816 8.22699 104.199 7.85568C104.583 7.48438 104.887 7.04342 105.094 6.55804C105.302 6.07266 105.409 5.55238 105.409 5.02694ZM95.5343 1.78544H101.286C101.891 1.7868 102.47 2.02033 102.898 2.43495C103.325 2.84958 103.566 3.41154 103.568 3.9979V5.02694C103.566 5.6133 103.325 6.17526 102.898 6.58988C102.47 7.00451 101.891 7.23804 101.286 7.2394H95.5343V1.78544Z" fill="#9F9F9F"/>
<path d="M11.7156 5.02705V3.99802C11.7156 3.47301 11.609 2.95314 11.4018 2.4681C11.1946 1.98305 10.8909 1.54232 10.5081 1.17108C10.1253 0.799844 9.67077 0.505358 9.17058 0.304446C8.67038 0.103534 8.13427 0.00011765 7.59286 0.000117753H0V16.2283H1.84118V9.02492H5.30598L9.60383 16.2283H11.7262L7.42838 9.02492H7.60347C8.69506 9.0222 9.74097 8.59979 10.5118 7.85034C11.2827 7.10089 11.7156 6.08557 11.7156 5.02705ZM1.84118 1.78555H7.59286C8.19755 1.78691 8.77706 2.02045 9.20464 2.43507C9.63221 2.84969 9.87304 3.41165 9.87444 3.99802V5.02705C9.87304 5.61342 9.63221 6.17538 9.20464 6.59C8.77706 7.00462 8.19755 7.23816 7.59286 7.23952H1.84118V1.78555Z" fill="#9F9F9F"/>
<path d="M29.252 4.7645L34.0273 16.223H36.0118L29.252 0L22.4921 16.223H24.4766L29.252 4.7645Z" fill="#9F9F9F"/>
<path d="M106.878 0H108.051V0.226406H107.6V1.57446H107.335V0.226406H106.878V0Z" fill="#9F9F9F"/>
<path d="M108.502 0.00479187H108.953L109.303 1.23451L109.664 0.00479187H110.12V1.57409H109.86V0.282622H109.834L109.452 1.51237H109.181L108.773 0.282622V1.57409H108.513L108.502 0.00479187Z" fill="#9F9F9F"/>
<path d="M46.8465 0V1.7854H55.4475L47.913 14.4376L46.8465 16.223H57.5646L58.6258 14.4376H50.0354L58.6311 0H46.8465Z" fill="#9F9F9F"/>
<path d="M70.2725 0V1.7854H80.9216L81.9828 0H70.2725Z" fill="#9F9F9F"/>
<path d="M70.2725 7.21848V9.00388H80.9216L81.9828 7.21848H70.2725Z" fill="#9F9F9F"/>
<path d="M70.2725 14.437V16.2224H80.9216L81.9828 14.437H70.2725Z" fill="#9F9F9F"/>
<path d="M29.252 4.7645L34.0273 16.223H36.0118L29.252 0L22.4921 16.223H24.4766L29.252 4.7645Z" fill="#9F9F9F"/>
</svg>
