<svg width="89" height="24" viewBox="0 0 89 24" fill="none" xmlns="http://www.w3.org/2000/svg">
<path d="M88.096 0V23.1831H39.8009L42.8265 20.1691H85.0704V3.014H42.8265L39.8009 0H88.096Z" fill="#9F9F9F"/>
<path d="M4.13172 5.96973C6.63326 5.96991 8.08721 7.24452 8.08745 9.44643H5.23662C5.23632 8.80944 4.71322 8.4618 4.13172 8.46158C3.60803 8.46158 3.14221 8.69404 3.14221 9.21566C3.14268 9.79478 3.95655 10.0271 4.94525 10.2588C6.51632 10.6645 8.49538 11.1859 8.49538 13.6201C8.49531 15.9383 6.69103 17.1551 4.30538 17.1551C1.68727 17.155 0.000173622 15.7645 0 13.4465H3.02566C3.02584 14.1995 3.60732 14.5477 4.24711 14.5479C4.88712 14.5479 5.41136 14.1996 5.41145 13.6201C5.41145 12.9826 4.59644 12.7505 3.60724 12.5187C2.09439 12.171 0.116551 11.6489 0.116551 9.27277C0.116714 7.18649 1.62978 5.96973 4.13172 5.96973Z" fill="#9F9F9F"/>
<path d="M33.5748 5.96973C36.3092 5.9699 38.404 7.70814 38.8697 10.3159H35.9023C35.495 9.33088 34.6219 8.69368 33.5748 8.69352C32.1201 8.69352 31.0141 9.91103 31.0141 11.5339C31.0143 13.2144 32.062 14.373 33.5748 14.373C34.622 14.3729 35.4949 13.7358 35.844 12.7506L38.8697 12.6924C38.346 15.3583 36.3094 17.0978 33.5748 17.098C30.3746 17.098 27.9887 14.7214 27.9885 11.5339C27.9885 8.34616 30.3744 5.96973 33.5748 5.96973Z" fill="#9F9F9F"/>
<path d="M60.7486 12.4033L63.2497 6.37532H64.2392L66.7999 12.4033L68.4875 6.31705H71.6868L68.4292 16.9232H65.8686L63.8325 11.8229L61.8535 16.9232H59.2928L55.977 6.31705H59.0609L60.7486 12.4033Z" fill="#9F9F9F"/>
<path fill-rule="evenodd" clip-rule="evenodd" d="M14.0234 6.31705C16.2343 6.31714 17.9218 7.88215 17.922 10.1422C17.922 12.3446 16.2344 13.9673 14.0234 13.9674H12.4523V16.8661H9.54317V6.31705H14.0234ZM12.394 11.4173H13.6155C14.4301 11.4173 14.8963 10.8957 14.8963 10.1422C14.8962 9.38899 14.3718 8.86718 13.6155 8.86718H12.394V11.4173Z" fill="#9F9F9F"/>
<path fill-rule="evenodd" clip-rule="evenodd" d="M28.337 16.8661H25.1377L24.4966 15.1271H20.7728L20.1912 16.8661H17.1073L21.239 6.25877H24.0899L28.337 16.8661ZM21.471 12.866H23.7985L22.6353 9.56299L21.471 12.866Z" fill="#9F9F9F"/>
<path d="M46.7252 8.86718H42.8848V10.4325H46.7252V12.7506H42.8848V14.3159H46.7252V16.8661H39.9746V6.31705H46.7252V8.86718Z" fill="#9F9F9F"/>
<path d="M55.3371 8.81007H51.4968V10.3742H55.3371V12.7506H51.4968V16.8661H48.5865V14.373L51.3219 11.5921L48.5865 8.81007V6.31705H55.3371V8.81007Z" fill="#9F9F9F"/>
<path fill-rule="evenodd" clip-rule="evenodd" d="M76.6332 6.31705C79.7754 6.31705 82.0447 8.46239 82.0447 11.5921C82.0444 14.6636 79.7752 16.8661 76.6332 16.8661H72.3861V6.31705H76.6332ZM75.237 14.1994H76.4584C78.0293 14.1994 79.0771 13.1567 79.0773 11.5921C79.0773 10.0273 78.0295 8.98373 76.4584 8.98373H75.237V14.1994Z" fill="#9F9F9F"/>
</svg>
