<svg width="74" height="20" viewBox="0 0 74 20" fill="none" xmlns="http://www.w3.org/2000/svg">
<path d="M73.0272 0.0537762V19.6936H0V0.0288047C0.00760035 0.00897273 0.0142731 -0.000641694 0.0199684 3.32034e-05L73.0272 0.0537762ZM70.9217 2.11989C70.9217 2.11716 70.9205 2.11454 70.9185 2.1126C70.9165 2.11067 70.9137 2.10958 70.9109 2.10958H2.11636C2.11349 2.10958 2.11073 2.11067 2.1087 2.1126C2.10667 2.11454 2.10552 2.11716 2.10552 2.11989V17.6739C2.10552 17.6766 2.10667 17.6792 2.1087 17.6812C2.11073 17.6831 2.11349 17.6842 2.11636 17.6842H70.9109C70.9137 17.6842 70.9165 17.6831 70.9185 17.6812C70.9205 17.6792 70.9217 17.6766 70.9217 17.6739V2.11989Z" fill="#9F9F9F"/>
<path d="M13.3956 4.11355H15.8925L15.8965 4.11453L15.8996 4.11711L15.9013 4.12074L15.901 4.12468L12.2203 15.6808L12.217 15.6853L12.2114 15.687H10.0035L9.99798 15.6853L9.99466 15.6808L6.37554 4.12468L6.37532 4.12067L6.37702 4.117L6.38027 4.11444L6.38438 4.11355H8.76575L8.77135 4.11537L8.7746 4.12006L11.1015 12.8142L11.1048 12.8189L11.1104 12.8206L11.116 12.8187L11.1192 12.8139L13.3867 4.12006L13.39 4.11537L13.3956 4.11355Z" fill="#9F9F9F"/>
<path d="M29.6407 15.6789L29.6409 15.6818L29.6397 15.6844L29.6373 15.6863L29.6342 15.687H27.1986L27.1946 15.6858L27.1923 15.6827L26.3662 12.8004L26.363 12.7959L26.3576 12.7941H22.7502C22.7467 12.7941 22.7433 12.7952 22.7406 12.7973C22.7379 12.7993 22.7359 12.8021 22.7351 12.8053L21.9911 15.617C21.9901 15.6208 21.9879 15.6242 21.9848 15.6266C21.9816 15.6291 21.9778 15.6306 21.9737 15.6308L21.8511 15.6373L21.7261 15.6428L21.5986 15.6474L21.4682 15.6512L21.335 15.6539L21.1981 15.6561L21.0578 15.6572L20.9134 15.6577L20.7685 15.6572L20.6182 15.6561L20.4613 15.6539L20.2964 15.6512L20.1255 15.6474L19.9407 15.643L19.4805 15.63L19.4772 15.6292L19.4746 15.627L19.4733 15.624L19.4734 15.6208L22.916 4.12387C22.9169 4.12088 22.9188 4.11826 22.9214 4.1164C22.924 4.11454 22.9272 4.11354 22.9305 4.11355H26.1862C26.1886 4.11353 26.191 4.11429 26.193 4.11571C26.1949 4.11714 26.197 4.12142 26.197 4.12142L29.6407 15.6789ZM24.4966 6.08033L23.2112 10.9403L23.2111 10.9458L23.2135 10.9508L23.2179 10.9543L23.2235 10.9555H25.8847L25.8899 10.9544L25.8941 10.9511L25.8963 10.9465L25.8961 10.9414L24.5029 6.08005L24.5018 6.07849L24.4998 6.07796L24.4978 6.07866L24.4966 6.08033Z" fill="#9F9F9F"/>
<path d="M37.9404 4.11323L37.9463 4.11554L37.9487 4.1211V13.7281L37.9494 13.7315L37.9514 13.7344L37.9545 13.7363L37.9581 13.737H43.0138C43.0181 13.737 43.0223 13.7387 43.0253 13.7416C43.0284 13.7445 43.0301 13.7484 43.0301 13.7525V15.678L43.0278 15.6832L43.0224 15.6853H35.5596C35.5568 15.6853 35.5541 15.6843 35.5522 15.6824C35.5502 15.6805 35.5491 15.678 35.5491 15.6753C35.5497 15.4548 35.5468 14.9627 35.5405 14.2031C35.5246 12.1976 35.5177 10.2545 35.52 8.38851C35.5215 6.94528 35.5507 5.52024 35.6073 4.12409C35.6074 4.12116 35.6087 4.1184 35.6109 4.11638C35.6131 4.11436 35.6159 4.11323 35.6189 4.11323H37.9404Z" fill="#9F9F9F"/>
<path d="M50.7528 12.7225L53.0278 4.12169C53.0283 4.11937 53.0297 4.11731 53.0317 4.11583C53.0337 4.11435 53.0361 4.11355 53.0386 4.11355H55.4747L55.4785 4.11439L55.4816 4.1168L55.4832 4.1203L55.483 4.12414L51.8023 15.6791C51.8023 15.6791 51.8001 15.6834 51.7981 15.6848C51.7961 15.6862 51.7936 15.687 51.7911 15.687H49.646C49.6432 15.687 49.6406 15.6862 49.6384 15.6847C49.6362 15.6832 49.6345 15.6811 49.6337 15.6786L45.9592 4.12468L45.9589 4.12072L45.9606 4.11703L45.9639 4.11445L45.9681 4.11355H48.396C48.4008 4.11357 48.4054 4.11507 48.4092 4.11783C48.413 4.12058 48.4156 4.12442 48.4168 4.12875L50.7448 12.7225L50.746 12.7252L50.7488 12.7263L50.7516 12.7252L50.7528 12.7225Z" fill="#9F9F9F"/>
<path d="M62.3367 10.5084H65.5878C65.5912 10.5084 65.5944 10.5096 65.5967 10.5119C65.5991 10.5141 65.6004 10.5171 65.6004 10.5203V12.0007C65.6004 12.0039 65.5991 12.0069 65.5967 12.0091C65.5944 12.0114 65.5912 12.0126 65.5878 12.0126H60.5267C60.5234 12.0126 60.5202 12.0114 60.5178 12.0091C60.5155 12.0069 60.5141 12.0039 60.5141 12.0007L60.5709 4.12517C60.5709 4.12201 60.5722 4.11897 60.5746 4.11673C60.5769 4.11449 60.5801 4.11323 60.5835 4.11323H65.5878C65.5912 4.11323 65.5944 4.11449 65.5967 4.11673C65.5991 4.11897 65.6004 4.12201 65.6004 4.12517V5.60365C65.6004 5.60682 65.5991 5.60985 65.5967 5.61209C65.5944 5.61433 65.5912 5.61559 65.5878 5.61559H62.3367C62.3334 5.61559 62.3302 5.61685 62.3278 5.61909C62.3255 5.62133 62.3241 5.62437 62.3241 5.62753V7.27049C62.3241 7.27366 62.3255 7.2767 62.3278 7.27894C62.3302 7.28118 62.3334 7.28244 62.3367 7.28244H65.2951L65.2999 7.28335L65.304 7.28594L65.3067 7.28981L65.3077 7.29438V8.77367C65.3077 8.77684 65.3064 8.77987 65.304 8.78211C65.3017 8.78435 65.2985 8.78561 65.2951 8.78561H62.3367C62.3334 8.78561 62.3302 8.78687 62.3278 8.78911C62.3255 8.79135 62.3241 8.79439 62.3241 8.79755V10.4964C62.3241 10.4996 62.3255 10.5026 62.3278 10.5049C62.3302 10.5071 62.3334 10.5084 62.3367 10.5084Z" fill="#9F9F9F"/>
</svg>
